<?xml version="1.0" encoding="utf-8" standalone="no"?>
<!DOCTYPE svg PUBLIC "-//W3C//DTD SVG 1.1//EN"
  "http://www.w3.org/Graphics/SVG/1.1/DTD/svg11.dtd">
<svg xmlns:xlink="http://www.w3.org/1999/xlink" width="361.138138pt" height="336.275344pt" viewBox="0 0 361.138138 336.275344" xmlns="http://www.w3.org/2000/svg" version="1.1">
 <metadata>
  <rdf:RDF xmlns:dc="http://purl.org/dc/elements/1.1/" xmlns:cc="http://creativecommons.org/ns#" xmlns:rdf="http://www.w3.org/1999/02/22-rdf-syntax-ns#">
   <cc:Work>
    <dc:type rdf:resource="http://purl.org/dc/dcmitype/StillImage"/>
    <dc:date>2023-08-14T16:25:24.714468</dc:date>
    <dc:format>image/svg+xml</dc:format>
    <dc:creator>
     <cc:Agent>
      <dc:title>Matplotlib v3.7.1, https://matplotlib.org/</dc:title>
     </cc:Agent>
    </dc:creator>
   </cc:Work>
  </rdf:RDF>
 </metadata>
 <defs>
  <style type="text/css">*{stroke-linejoin: round; stroke-linecap: butt}</style>
 </defs>
 <g id="figure_1">
  <g id="patch_1">
   <path d="M 0 336.275344 
L 361.138138 336.275344 
L 361.138138 0 
L 0 0 
z
" style="fill: #ffffff"/>
  </g>
  <g id="axes_1">
   <g id="patch_2">
    <path d="M 67.460625 289.256156 
L 346.460625 289.256156 
L 346.460625 12.056156 
L 67.460625 12.056156 
z
" style="fill: #ffffff"/>
   </g>
   <g id="matplotlib.axis_1">
    <g id="xtick_1">
     <g id="line2d_1">
      <path d="M 76.97764 289.256156 
L 76.97764 12.056156 
" clip-path="url(#p3f7d7b851c)" style="fill: none; stroke: #cccccc; stroke-linecap: round"/>
     </g>
     <g id="text_1">
      <!-- 0 -->
      <g style="fill: #262626" transform="translate(73.307421 308.468469) scale(0.132 -0.132)">
       <defs>
        <path id="Charter-Roman-30" d="M 1778 4072 
Q 1331 4072 1097 3580 
Q 863 3088 863 2144 
Q 863 1206 1097 718 
Q 1331 231 1778 231 
Q 2225 231 2456 720 
Q 2688 1209 2688 2150 
Q 2688 3094 2456 3583 
Q 2225 4072 1778 4072 
z
M 1778 4372 
Q 2484 4372 2890 3778 
Q 3297 3184 3297 2150 
Q 3297 1113 2889 517 
Q 2481 -78 1778 -78 
Q 1078 -78 670 517 
Q 263 1113 263 2150 
Q 263 3184 669 3778 
Q 1075 4372 1778 4372 
z
" transform="scale(0.015625)"/>
       </defs>
       <use xlink:href="#Charter-Roman-30"/>
      </g>
     </g>
    </g>
    <g id="xtick_2">
     <g id="line2d_2">
      <path d="M 103.572624 289.256156 
L 103.572624 12.056156 
" clip-path="url(#p3f7d7b851c)" style="fill: none; stroke: #cccccc; stroke-linecap: round"/>
     </g>
     <g id="text_2">
      <!-- 10 -->
      <g style="fill: #262626" transform="translate(96.232187 308.468469) scale(0.132 -0.132)">
       <defs>
        <path id="Charter-Roman-31" d="M 1991 4372 
L 2169 4372 
L 2169 397 
L 2247 300 
L 2938 269 
L 2938 0 
L 794 0 
L 794 275 
L 1528 313 
L 1606 422 
L 1606 3866 
L 603 3688 
L 603 3956 
L 1991 4372 
z
" transform="scale(0.015625)"/>
       </defs>
       <use xlink:href="#Charter-Roman-31"/>
       <use xlink:href="#Charter-Roman-30" x="55.615234"/>
      </g>
     </g>
    </g>
    <g id="xtick_3">
     <g id="line2d_3">
      <path d="M 130.167608 289.256156 
L 130.167608 12.056156 
" clip-path="url(#p3f7d7b851c)" style="fill: none; stroke: #cccccc; stroke-linecap: round"/>
     </g>
     <g id="text_3">
      <!-- 20 -->
      <g style="fill: #262626" transform="translate(122.827171 308.468469) scale(0.132 -0.132)">
       <defs>
        <path id="Charter-Roman-32" d="M 903 506 
L 2828 506 
L 2944 1050 
L 3231 1050 
L 3231 0 
L 269 0 
L 269 403 
Q 1669 1541 2070 2062 
Q 2472 2584 2472 3078 
Q 2472 3531 2245 3787 
Q 2019 4044 1619 4044 
Q 1469 4044 1328 4006 
Q 1188 3969 1050 3891 
L 1050 3206 
Q 981 3159 909 3134 
Q 838 3109 763 3109 
Q 597 3109 500 3206 
Q 403 3303 403 3469 
Q 403 3828 801 4100 
Q 1200 4372 1759 4372 
Q 2369 4372 2730 4042 
Q 3091 3713 3091 3163 
Q 3091 2656 2652 2103 
Q 2213 1550 903 506 
z
" transform="scale(0.015625)"/>
       </defs>
       <use xlink:href="#Charter-Roman-32"/>
       <use xlink:href="#Charter-Roman-30" x="55.615234"/>
      </g>
     </g>
    </g>
    <g id="xtick_4">
     <g id="line2d_4">
      <path d="M 156.762592 289.256156 
L 156.762592 12.056156 
" clip-path="url(#p3f7d7b851c)" style="fill: none; stroke: #cccccc; stroke-linecap: round"/>
     </g>
     <g id="text_4">
      <!-- 30 -->
      <g style="fill: #262626" transform="translate(149.422155 308.468469) scale(0.132 -0.132)">
       <defs>
        <path id="Charter-Roman-33" d="M 2028 2259 
Q 2553 2222 2851 1947 
Q 3150 1672 3150 1228 
Q 3150 669 2695 298 
Q 2241 -72 1528 -72 
Q 1006 -72 634 143 
Q 263 359 263 634 
Q 263 772 366 865 
Q 469 959 622 959 
Q 675 959 722 951 
Q 769 944 813 928 
L 1013 384 
Q 1141 306 1277 268 
Q 1413 231 1556 231 
Q 1988 231 2273 520 
Q 2559 809 2559 1241 
Q 2559 1625 2314 1833 
Q 2069 2041 1613 2041 
Q 1525 2041 1439 2034 
Q 1353 2028 1275 2016 
L 1275 2394 
Q 1297 2394 1340 2391 
Q 1384 2388 1409 2388 
Q 1884 2388 2142 2603 
Q 2400 2819 2400 3213 
Q 2400 3591 2178 3817 
Q 1956 4044 1588 4044 
Q 1416 4044 1266 3998 
Q 1116 3953 978 3859 
L 978 3256 
Q 922 3216 858 3195 
Q 794 3175 716 3175 
Q 563 3175 467 3270 
Q 372 3366 372 3519 
Q 372 3863 765 4117 
Q 1159 4372 1722 4372 
Q 2294 4372 2637 4078 
Q 2981 3784 2981 3297 
Q 2981 2922 2737 2658 
Q 2494 2394 2028 2259 
z
" transform="scale(0.015625)"/>
       </defs>
       <use xlink:href="#Charter-Roman-33"/>
       <use xlink:href="#Charter-Roman-30" x="55.615234"/>
      </g>
     </g>
    </g>
    <g id="xtick_5">
     <g id="line2d_5">
      <path d="M 183.357577 289.256156 
L 183.357577 12.056156 
" clip-path="url(#p3f7d7b851c)" style="fill: none; stroke: #cccccc; stroke-linecap: round"/>
     </g>
     <g id="text_5">
      <!-- 40 -->
      <g style="fill: #262626" transform="translate(176.017139 308.468469) scale(0.132 -0.132)">
       <defs>
        <path id="Charter-Roman-34" d="M 2234 3634 
L 653 1656 
L 2234 1656 
L 2234 3634 
z
M 2356 4331 
L 2725 4331 
L 2725 1656 
L 3450 1656 
L 3450 1241 
L 2725 1241 
L 2725 -238 
L 2234 -238 
L 2234 1241 
L 172 1241 
L 172 1656 
L 2356 4331 
z
" transform="scale(0.015625)"/>
       </defs>
       <use xlink:href="#Charter-Roman-34"/>
       <use xlink:href="#Charter-Roman-30" x="55.615234"/>
      </g>
     </g>
    </g>
    <g id="xtick_6">
     <g id="line2d_6">
      <path d="M 209.952561 289.256156 
L 209.952561 12.056156 
" clip-path="url(#p3f7d7b851c)" style="fill: none; stroke: #cccccc; stroke-linecap: round"/>
     </g>
     <g id="text_6">
      <!-- 50 -->
      <g style="fill: #262626" transform="translate(202.612123 308.468469) scale(0.132 -0.132)">
       <defs>
        <path id="Charter-Roman-35" d="M 647 4294 
L 2938 4294 
L 2938 3794 
L 1044 3794 
L 1044 2516 
Q 1225 2566 1397 2592 
Q 1569 2619 1728 2619 
Q 2363 2619 2745 2281 
Q 3128 1944 3128 1388 
Q 3128 750 2656 347 
Q 2184 -56 1422 -56 
Q 953 -56 636 120 
Q 319 297 319 544 
Q 319 694 423 789 
Q 528 884 691 884 
Q 719 884 756 879 
Q 794 875 847 863 
L 1100 313 
Q 1206 275 1314 256 
Q 1422 238 1528 238 
Q 1975 238 2258 523 
Q 2541 809 2541 1259 
Q 2541 1747 2214 1984 
Q 1888 2222 1209 2222 
Q 1031 2222 892 2212 
Q 753 2203 647 2181 
L 647 4294 
z
" transform="scale(0.015625)"/>
       </defs>
       <use xlink:href="#Charter-Roman-35"/>
       <use xlink:href="#Charter-Roman-30" x="55.615234"/>
      </g>
     </g>
    </g>
    <g id="xtick_7">
     <g id="line2d_7">
      <path d="M 236.547545 289.256156 
L 236.547545 12.056156 
" clip-path="url(#p3f7d7b851c)" style="fill: none; stroke: #cccccc; stroke-linecap: round"/>
     </g>
     <g id="text_7">
      <!-- 60 -->
      <g style="fill: #262626" transform="translate(229.207107 308.468469) scale(0.132 -0.132)">
       <defs>
        <path id="Charter-Roman-36" d="M 928 2175 
Q 922 2106 919 2023 
Q 916 1941 916 1784 
Q 916 1034 1159 632 
Q 1403 231 1863 231 
Q 2263 231 2520 559 
Q 2778 888 2778 1394 
Q 2778 1881 2525 2172 
Q 2272 2463 1856 2463 
Q 1591 2463 1358 2391 
Q 1125 2319 928 2175 
z
M 2834 4569 
L 2834 4197 
L 2816 4197 
Q 2047 4197 1569 3755 
Q 1091 3313 941 2456 
Q 1191 2650 1467 2748 
Q 1744 2847 2028 2847 
Q 2606 2847 2982 2451 
Q 3359 2056 3359 1453 
Q 3359 803 2914 362 
Q 2469 -78 1813 -78 
Q 1141 -78 730 428 
Q 319 934 319 1772 
Q 319 3003 989 3748 
Q 1659 4494 2834 4569 
z
" transform="scale(0.015625)"/>
       </defs>
       <use xlink:href="#Charter-Roman-36"/>
       <use xlink:href="#Charter-Roman-30" x="55.615234"/>
      </g>
     </g>
    </g>
    <g id="xtick_8">
     <g id="line2d_8">
      <path d="M 263.142529 289.256156 
L 263.142529 12.056156 
" clip-path="url(#p3f7d7b851c)" style="fill: none; stroke: #cccccc; stroke-linecap: round"/>
     </g>
     <g id="text_8">
      <!-- 70 -->
      <g style="fill: #262626" transform="translate(255.802091 308.468469) scale(0.132 -0.132)">
       <defs>
        <path id="Charter-Roman-37" d="M 453 4294 
L 3397 4294 
L 3397 4038 
L 1275 -97 
L 1275 -238 
L 744 -238 
L 2828 3809 
L 856 3809 
L 756 3225 
L 453 3225 
L 453 4294 
z
" transform="scale(0.015625)"/>
       </defs>
       <use xlink:href="#Charter-Roman-37"/>
       <use xlink:href="#Charter-Roman-30" x="55.615234"/>
      </g>
     </g>
    </g>
    <g id="xtick_9">
     <g id="line2d_9">
      <path d="M 289.737513 289.256156 
L 289.737513 12.056156 
" clip-path="url(#p3f7d7b851c)" style="fill: none; stroke: #cccccc; stroke-linecap: round"/>
     </g>
     <g id="text_9">
      <!-- 80 -->
      <g style="fill: #262626" transform="translate(282.397076 308.468469) scale(0.132 -0.132)">
       <defs>
        <path id="Charter-Roman-38" d="M 1403 2106 
Q 1072 1931 923 1709 
Q 775 1488 775 1172 
Q 775 744 1048 487 
Q 1322 231 1778 231 
Q 2188 231 2438 465 
Q 2688 700 2688 1081 
Q 2688 1391 2453 1595 
Q 2219 1800 1403 2106 
z
M 2322 2247 
Q 2769 2091 3003 1808 
Q 3238 1525 3238 1147 
Q 3238 616 2820 256 
Q 2403 -103 1759 -103 
Q 1088 -103 684 236 
Q 281 575 281 1131 
Q 281 1516 503 1794 
Q 725 2072 1159 2241 
Q 828 2378 658 2629 
Q 488 2881 488 3225 
Q 488 3741 855 4062 
Q 1222 4384 1813 4384 
Q 2372 4384 2715 4086 
Q 3059 3788 3059 3309 
Q 3059 2988 2867 2709 
Q 2675 2431 2322 2247 
z
M 2053 2363 
Q 2297 2522 2431 2753 
Q 2566 2984 2566 3244 
Q 2566 3625 2356 3851 
Q 2147 4078 1791 4078 
Q 1463 4078 1241 3859 
Q 1019 3641 1019 3322 
Q 1019 3016 1266 2786 
Q 1513 2556 2053 2363 
z
" transform="scale(0.015625)"/>
       </defs>
       <use xlink:href="#Charter-Roman-38"/>
       <use xlink:href="#Charter-Roman-30" x="55.615234"/>
      </g>
     </g>
    </g>
    <g id="xtick_10">
     <g id="line2d_10">
      <path d="M 316.332497 289.256156 
L 316.332497 12.056156 
" clip-path="url(#p3f7d7b851c)" style="fill: none; stroke: #cccccc; stroke-linecap: round"/>
     </g>
     <g id="text_10">
      <!-- 90 -->
      <g style="fill: #262626" transform="translate(308.99206 308.468469) scale(0.132 -0.132)">
       <defs>
        <path id="Charter-Roman-39" d="M 806 -331 
L 659 -38 
Q 1409 313 1875 745 
Q 2341 1178 2547 1722 
Q 2278 1597 2037 1534 
Q 1797 1472 1588 1472 
Q 1000 1472 637 1851 
Q 275 2231 275 2847 
Q 275 3513 712 3936 
Q 1150 4359 1838 4359 
Q 2513 4359 2895 3925 
Q 3278 3491 3278 2719 
Q 3278 1744 2617 925 
Q 1956 106 806 -331 
z
M 2631 2041 
Q 2669 2209 2687 2371 
Q 2706 2534 2706 2688 
Q 2706 3347 2465 3701 
Q 2225 4056 1778 4056 
Q 1375 4056 1126 3743 
Q 878 3431 878 2919 
Q 878 2388 1123 2103 
Q 1369 1819 1825 1819 
Q 2009 1819 2211 1873 
Q 2413 1928 2631 2041 
z
" transform="scale(0.015625)"/>
       </defs>
       <use xlink:href="#Charter-Roman-39"/>
       <use xlink:href="#Charter-Roman-30" x="55.615234"/>
      </g>
     </g>
    </g>
    <g id="xtick_11">
     <g id="line2d_11">
      <path d="M 342.927481 289.256156 
L 342.927481 12.056156 
" clip-path="url(#p3f7d7b851c)" style="fill: none; stroke: #cccccc; stroke-linecap: round"/>
     </g>
     <g id="text_11">
      <!-- 100 -->
      <g style="fill: #262626" transform="translate(331.916825 308.468469) scale(0.132 -0.132)">
       <use xlink:href="#Charter-Roman-31"/>
       <use xlink:href="#Charter-Roman-30" x="55.615234"/>
       <use xlink:href="#Charter-Roman-30" x="111.230469"/>
      </g>
     </g>
    </g>
    <g id="text_12">
     <!-- Table usage [%] -->
     <g style="fill: #262626" transform="translate(156.130875 325.938844) scale(0.144 -0.144)">
      <defs>
       <path id="Charter-Roman-54" d="M 103 4294 
L 3719 4294 
L 3719 3309 
L 3366 3309 
L 3278 3903 
L 3188 4000 
L 2209 4000 
L 2209 384 
L 2316 294 
L 2747 263 
L 2747 0 
L 1075 0 
L 1075 263 
L 1503 294 
L 1613 384 
L 1613 4000 
L 634 4000 
L 544 3903 
L 453 3309 
L 103 3309 
L 103 4294 
z
" transform="scale(0.015625)"/>
       <path id="Charter-Roman-61" d="M 2138 588 
L 2138 1716 
Q 1334 1494 1082 1309 
Q 831 1125 831 825 
Q 831 584 970 442 
Q 1109 300 1344 300 
Q 1494 300 1689 372 
Q 1884 444 2138 588 
z
M 2138 372 
Q 1828 159 1570 57 
Q 1313 -44 1088 -44 
Q 716 -44 492 181 
Q 269 406 269 775 
Q 269 1184 605 1418 
Q 941 1653 2138 1941 
L 2138 2144 
Q 2138 2547 2006 2703 
Q 1875 2859 1550 2859 
Q 1428 2859 1309 2834 
Q 1191 2809 1063 2759 
L 1063 2222 
L 622 2222 
Q 506 2222 464 2264 
Q 422 2306 422 2419 
Q 422 2731 783 2937 
Q 1144 3144 1716 3144 
Q 2219 3144 2447 2925 
Q 2675 2706 2675 2222 
L 2675 366 
L 2784 263 
L 3122 231 
L 3122 0 
L 2222 0 
L 2138 372 
z
" transform="scale(0.015625)"/>
       <path id="Charter-Roman-62" d="M 1081 294 
Q 1181 291 1270 289 
Q 1359 288 1434 288 
Q 2063 288 2356 595 
Q 2650 903 2650 1563 
Q 2650 2159 2389 2481 
Q 2128 2803 1644 2803 
Q 1531 2803 1390 2778 
Q 1250 2753 1081 2700 
L 1081 294 
z
M 838 4709 
L 1081 4709 
L 1081 2919 
Q 1319 3031 1536 3087 
Q 1753 3144 1959 3144 
Q 2525 3144 2875 2739 
Q 3225 2334 3225 1684 
Q 3225 853 2754 426 
Q 2284 0 1369 0 
L 544 0 
L 544 4281 
L 50 4281 
L 50 4481 
L 838 4709 
z
" transform="scale(0.015625)"/>
       <path id="Charter-Roman-6c" d="M 178 0 
L 178 231 
L 556 263 
L 666 366 
L 666 4281 
L 172 4281 
L 172 4481 
L 953 4709 
L 1197 4709 
L 1197 366 
L 1313 263 
L 1678 231 
L 1678 0 
L 178 0 
z
" transform="scale(0.015625)"/>
       <path id="Charter-Roman-65" d="M 2297 1953 
L 2297 2053 
Q 2297 2441 2126 2647 
Q 1956 2853 1631 2853 
Q 1313 2853 1080 2598 
Q 847 2344 819 1953 
L 2297 1953 
z
M 2869 678 
L 2869 325 
Q 2584 138 2278 41 
Q 1972 -56 1663 -56 
Q 1028 -56 633 380 
Q 238 816 238 1516 
Q 238 2234 652 2689 
Q 1066 3144 1716 3144 
Q 2247 3144 2558 2805 
Q 2869 2466 2869 1881 
Q 2869 1803 2867 1762 
Q 2866 1722 2859 1684 
L 788 1684 
L 788 1613 
Q 788 1009 1078 657 
Q 1369 306 1863 306 
Q 2091 306 2336 397 
Q 2581 488 2869 678 
z
" transform="scale(0.015625)"/>
       <path id="Charter-Roman-20" transform="scale(0.015625)"/>
       <path id="Charter-Roman-75" d="M 909 3144 
L 1153 3144 
L 1153 1025 
Q 1153 675 1303 511 
Q 1453 347 1772 347 
Q 1950 347 2133 394 
Q 2316 441 2516 538 
L 2516 2706 
L 2059 2706 
L 2059 2906 
L 2803 3144 
L 3047 3144 
L 3047 366 
L 3163 263 
L 3463 231 
L 3463 0 
L 2516 0 
L 2516 359 
Q 2216 144 1961 40 
Q 1706 -63 1478 -63 
Q 1063 -63 842 189 
Q 622 441 622 916 
L 622 2706 
L 166 2706 
L 166 2906 
L 909 3144 
z
" transform="scale(0.015625)"/>
       <path id="Charter-Roman-73" d="M 2203 3003 
L 2203 2278 
L 1888 2278 
L 1838 2731 
Q 1709 2800 1593 2834 
Q 1478 2869 1363 2869 
Q 1113 2869 972 2747 
Q 831 2625 831 2406 
Q 831 2228 943 2103 
Q 1056 1978 1375 1825 
Q 1425 1800 1528 1753 
Q 1891 1588 2053 1453 
Q 2172 1359 2234 1217 
Q 2297 1075 2297 903 
Q 2297 453 1980 198 
Q 1663 -56 1100 -56 
Q 869 -56 658 -23 
Q 447 9 269 78 
L 269 909 
L 575 909 
L 653 366 
Q 788 288 923 250 
Q 1059 213 1197 213 
Q 1469 213 1633 355 
Q 1797 497 1797 728 
Q 1797 922 1684 1048 
Q 1572 1175 1147 1369 
Q 666 1584 492 1775 
Q 319 1966 319 2247 
Q 319 2675 616 2909 
Q 913 3144 1453 3144 
Q 1669 3144 1855 3108 
Q 2041 3072 2203 3003 
z
" transform="scale(0.015625)"/>
       <path id="Charter-Roman-67" d="M 1319 191 
Q 1059 113 914 -53 
Q 769 -219 769 -434 
Q 769 -722 1012 -911 
Q 1256 -1100 1638 -1100 
Q 2047 -1100 2319 -903 
Q 2591 -706 2591 -422 
Q 2591 -206 2472 -103 
Q 2353 0 1941 78 
L 1319 191 
z
M 1575 2894 
Q 1288 2894 1117 2680 
Q 947 2466 947 2106 
Q 947 1750 1120 1534 
Q 1294 1319 1575 1319 
Q 1856 1319 2029 1534 
Q 2203 1750 2203 2106 
Q 2203 2463 2031 2678 
Q 1859 2894 1575 2894 
z
M 2363 2963 
L 3278 2963 
L 3278 2663 
L 2572 2663 
Q 2666 2522 2709 2378 
Q 2753 2234 2753 2069 
Q 2753 1628 2412 1348 
Q 2072 1069 1528 1069 
L 1422 1069 
Q 1384 997 1367 925 
Q 1350 853 1350 781 
Q 1350 759 1356 688 
Q 1363 647 1363 628 
L 1978 531 
Q 2578 441 2822 261 
Q 3066 81 3066 -256 
Q 3066 -441 2964 -633 
Q 2863 -825 2681 -972 
Q 2428 -1178 2103 -1286 
Q 1778 -1394 1416 -1394 
Q 869 -1394 562 -1175 
Q 256 -956 256 -569 
Q 256 -259 440 -46 
Q 625 166 947 225 
Q 916 300 900 372 
Q 884 444 884 513 
Q 884 634 959 784 
Q 1034 934 1191 1119 
Q 825 1200 611 1461 
Q 397 1722 397 2088 
Q 397 2559 739 2851 
Q 1081 3144 1638 3144 
Q 1822 3144 2001 3098 
Q 2181 3053 2363 2963 
z
" transform="scale(0.015625)"/>
       <path id="Charter-Roman-5b" d="M 891 4531 
L 2406 4531 
L 2406 4256 
L 1394 4256 
L 1394 -575 
L 2406 -575 
L 2406 -844 
L 891 -844 
L 891 4531 
z
" transform="scale(0.015625)"/>
       <path id="Charter-Roman-25" d="M 4281 2381 
Q 4041 2381 3911 2095 
Q 3781 1809 3781 1269 
Q 3781 719 3907 436 
Q 4034 153 4281 153 
Q 4534 153 4664 436 
Q 4794 719 4794 1269 
Q 4794 1809 4662 2095 
Q 4531 2381 4281 2381 
z
M 4294 2606 
Q 4738 2606 4995 2247 
Q 5253 1888 5253 1269 
Q 5253 641 4997 281 
Q 4741 -78 4294 -78 
Q 3847 -78 3590 280 
Q 3334 638 3334 1269 
Q 3334 1888 3593 2247 
Q 3853 2606 4294 2606 
z
M 1147 4141 
Q 903 4141 775 3858 
Q 647 3575 647 3034 
Q 647 2484 773 2201 
Q 900 1919 1147 1919 
Q 1397 1919 1526 2203 
Q 1656 2488 1656 3034 
Q 1656 3575 1526 3858 
Q 1397 4141 1147 4141 
z
M 3891 4294 
L 4281 4294 
L 1544 0 
L 1159 0 
L 3891 4294 
z
M 1159 4372 
Q 1600 4372 1859 4012 
Q 2119 3653 2119 3034 
Q 2119 2406 1861 2048 
Q 1603 1691 1159 1691 
Q 713 1691 455 2047 
Q 197 2403 197 3034 
Q 197 3653 456 4012 
Q 716 4372 1159 4372 
z
" transform="scale(0.015625)"/>
       <path id="Charter-Roman-5d" d="M 294 4531 
L 1806 4531 
L 1806 -850 
L 294 -850 
L 294 -575 
L 1306 -575 
L 1306 4256 
L 294 4256 
L 294 4531 
z
" transform="scale(0.015625)"/>
      </defs>
      <use xlink:href="#Charter-Roman-54"/>
      <use xlink:href="#Charter-Roman-61" x="50.091797"/>
      <use xlink:href="#Charter-Roman-62" x="100.775391"/>
      <use xlink:href="#Charter-Roman-6c" x="154.681641"/>
      <use xlink:href="#Charter-Roman-65" x="182.904297"/>
      <use xlink:href="#Charter-Roman-20" x="232.025391"/>
      <use xlink:href="#Charter-Roman-75" x="259.808594"/>
      <use xlink:href="#Charter-Roman-73" x="316.693359"/>
      <use xlink:href="#Charter-Roman-61" x="356.683594"/>
      <use xlink:href="#Charter-Roman-67" x="407.367188"/>
      <use xlink:href="#Charter-Roman-65" x="459.662109"/>
      <use xlink:href="#Charter-Roman-20" x="508.783203"/>
      <use xlink:href="#Charter-Roman-5b" x="536.566406"/>
      <use xlink:href="#Charter-Roman-25" x="578.65625"/>
      <use xlink:href="#Charter-Roman-5d" x="663.861328"/>
     </g>
    </g>
   </g>
   <g id="matplotlib.axis_2">
    <g id="ytick_1">
     <g id="line2d_12">
      <path d="M 67.460625 289.256156 
L 346.460625 289.256156 
" clip-path="url(#p3f7d7b851c)" style="fill: none; stroke: #cccccc; stroke-linecap: round"/>
     </g>
     <g id="text_13">
      <!-- 0.0 -->
      <g style="fill: #262626" transform="translate(39.612625 294.112313) scale(0.132 -0.132)">
       <defs>
        <path id="Charter-Roman-2e" d="M 891 756 
Q 1059 756 1176 637 
Q 1294 519 1294 347 
Q 1294 178 1175 61 
Q 1056 -56 891 -56 
Q 719 -56 600 59 
Q 481 175 481 347 
Q 481 516 600 636 
Q 719 756 891 756 
z
" transform="scale(0.015625)"/>
       </defs>
       <use xlink:href="#Charter-Roman-30"/>
       <use xlink:href="#Charter-Roman-2e" x="55.615234"/>
       <use xlink:href="#Charter-Roman-30" x="83.398438"/>
      </g>
     </g>
    </g>
    <g id="ytick_2">
     <g id="line2d_13">
      <path d="M 67.460625 249.656156 
L 346.460625 249.656156 
" clip-path="url(#p3f7d7b851c)" style="fill: none; stroke: #cccccc; stroke-linecap: round"/>
     </g>
     <g id="text_14">
      <!-- 15.7 -->
      <g style="fill: #262626" transform="translate(32.272188 254.512313) scale(0.132 -0.132)">
       <use xlink:href="#Charter-Roman-31"/>
       <use xlink:href="#Charter-Roman-35" x="55.615234"/>
       <use xlink:href="#Charter-Roman-2e" x="111.230469"/>
       <use xlink:href="#Charter-Roman-37" x="139.013672"/>
      </g>
     </g>
    </g>
    <g id="ytick_3">
     <g id="line2d_14">
      <path d="M 67.460625 210.056156 
L 346.460625 210.056156 
" clip-path="url(#p3f7d7b851c)" style="fill: none; stroke: #cccccc; stroke-linecap: round"/>
     </g>
     <g id="text_15">
      <!-- 31.4 -->
      <g style="fill: #262626" transform="translate(32.272188 214.912313) scale(0.132 -0.132)">
       <use xlink:href="#Charter-Roman-33"/>
       <use xlink:href="#Charter-Roman-31" x="55.615234"/>
       <use xlink:href="#Charter-Roman-2e" x="111.230469"/>
       <use xlink:href="#Charter-Roman-34" x="139.013672"/>
      </g>
     </g>
    </g>
    <g id="ytick_4">
     <g id="line2d_15">
      <path d="M 67.460625 170.456156 
L 346.460625 170.456156 
" clip-path="url(#p3f7d7b851c)" style="fill: none; stroke: #cccccc; stroke-linecap: round"/>
     </g>
     <g id="text_16">
      <!-- 47.1 -->
      <g style="fill: #262626" transform="translate(32.272188 175.312313) scale(0.132 -0.132)">
       <use xlink:href="#Charter-Roman-34"/>
       <use xlink:href="#Charter-Roman-37" x="55.615234"/>
       <use xlink:href="#Charter-Roman-2e" x="111.230469"/>
       <use xlink:href="#Charter-Roman-31" x="139.013672"/>
      </g>
     </g>
    </g>
    <g id="ytick_5">
     <g id="line2d_16">
      <path d="M 67.460625 130.856156 
L 346.460625 130.856156 
" clip-path="url(#p3f7d7b851c)" style="fill: none; stroke: #cccccc; stroke-linecap: round"/>
     </g>
     <g id="text_17">
      <!-- 62.9 -->
      <g style="fill: #262626" transform="translate(32.272188 135.712313) scale(0.132 -0.132)">
       <use xlink:href="#Charter-Roman-36"/>
       <use xlink:href="#Charter-Roman-32" x="55.615234"/>
       <use xlink:href="#Charter-Roman-2e" x="111.230469"/>
       <use xlink:href="#Charter-Roman-39" x="139.013672"/>
      </g>
     </g>
    </g>
    <g id="ytick_6">
     <g id="line2d_17">
      <path d="M 67.460625 91.256156 
L 346.460625 91.256156 
" clip-path="url(#p3f7d7b851c)" style="fill: none; stroke: #cccccc; stroke-linecap: round"/>
     </g>
     <g id="text_18">
      <!-- 78.6 -->
      <g style="fill: #262626" transform="translate(32.272188 96.112313) scale(0.132 -0.132)">
       <use xlink:href="#Charter-Roman-37"/>
       <use xlink:href="#Charter-Roman-38" x="55.615234"/>
       <use xlink:href="#Charter-Roman-2e" x="111.230469"/>
       <use xlink:href="#Charter-Roman-36" x="139.013672"/>
      </g>
     </g>
    </g>
    <g id="ytick_7">
     <g id="line2d_18">
      <path d="M 67.460625 51.656156 
L 346.460625 51.656156 
" clip-path="url(#p3f7d7b851c)" style="fill: none; stroke: #cccccc; stroke-linecap: round"/>
     </g>
     <g id="text_19">
      <!-- 94.3 -->
      <g style="fill: #262626" transform="translate(32.272188 56.512313) scale(0.132 -0.132)">
       <use xlink:href="#Charter-Roman-39"/>
       <use xlink:href="#Charter-Roman-34" x="55.615234"/>
       <use xlink:href="#Charter-Roman-2e" x="111.230469"/>
       <use xlink:href="#Charter-Roman-33" x="139.013672"/>
      </g>
     </g>
    </g>
    <g id="ytick_8">
     <g id="line2d_19">
      <path d="M 67.460625 12.056156 
L 346.460625 12.056156 
" clip-path="url(#p3f7d7b851c)" style="fill: none; stroke: #cccccc; stroke-linecap: round"/>
     </g>
     <g id="text_20">
      <!-- 110.0 -->
      <g style="fill: #262626" transform="translate(24.93175 16.912313) scale(0.132 -0.132)">
       <use xlink:href="#Charter-Roman-31"/>
       <use xlink:href="#Charter-Roman-31" x="55.615234"/>
       <use xlink:href="#Charter-Roman-30" x="111.230469"/>
       <use xlink:href="#Charter-Roman-2e" x="166.845703"/>
       <use xlink:href="#Charter-Roman-30" x="194.628906"/>
      </g>
     </g>
    </g>
    <g id="text_21">
     <!-- Runtime of makenode [ms] -->
     <g style="fill: #262626" transform="translate(17.79525 237.007781) rotate(-90) scale(0.144 -0.144)">
      <defs>
       <path id="Charter-Roman-52" d="M 1259 4000 
L 1259 2216 
Q 1356 2213 1443 2211 
Q 1531 2209 1613 2209 
Q 2206 2209 2476 2418 
Q 2747 2628 2747 3091 
Q 2747 3569 2469 3784 
Q 2191 4000 1569 4000 
L 1259 4000 
z
M 213 4294 
L 1844 4294 
Q 2628 4294 3006 4011 
Q 3384 3728 3384 3144 
Q 3384 2728 3125 2461 
Q 2866 2194 2350 2081 
Q 2591 2016 2753 1911 
Q 2916 1806 3009 1650 
Q 3116 1478 3191 1145 
Q 3266 813 3309 703 
Q 3406 441 3575 345 
Q 3744 250 4141 250 
L 4197 250 
L 4197 6 
Q 4053 -22 3931 -36 
Q 3809 -50 3700 -50 
Q 3478 -50 3320 -4 
Q 3163 41 3053 134 
Q 2825 334 2675 916 
Q 2619 1125 2584 1228 
Q 2456 1619 2239 1769 
Q 2022 1919 1581 1919 
Q 1488 1919 1281 1909 
L 1259 1906 
L 1259 384 
L 1369 294 
L 1734 263 
L 1734 0 
L 213 0 
L 213 263 
L 575 294 
L 684 384 
L 684 3909 
L 575 4000 
L 213 4038 
L 213 4294 
z
" transform="scale(0.015625)"/>
       <path id="Charter-Roman-6e" d="M 191 0 
L 191 231 
L 538 263 
L 647 366 
L 647 2681 
L 191 2681 
L 191 2881 
L 934 3109 
L 1178 3109 
L 1178 2759 
Q 1563 2972 1797 3058 
Q 2031 3144 2209 3144 
Q 2628 3144 2850 2894 
Q 3072 2644 3072 2169 
L 3072 366 
L 3181 263 
L 3525 231 
L 3525 0 
L 2125 0 
L 2125 231 
L 2431 263 
L 2541 366 
L 2541 2059 
Q 2541 2419 2392 2569 
Q 2244 2719 1894 2719 
Q 1741 2719 1562 2667 
Q 1384 2616 1178 2509 
L 1178 366 
L 1288 263 
L 1594 231 
L 1594 0 
L 191 0 
z
" transform="scale(0.015625)"/>
       <path id="Charter-Roman-74" d="M 563 2694 
L 159 2694 
L 159 2894 
L 581 3078 
L 856 3675 
L 1094 3675 
L 1094 2994 
L 2069 2994 
L 2069 2694 
L 1094 2694 
L 1094 1006 
Q 1094 591 1209 448 
Q 1325 306 1625 306 
Q 1728 306 1839 318 
Q 1950 331 2069 359 
L 2069 122 
Q 1850 53 1637 17 
Q 1425 -19 1228 -19 
Q 859 -19 711 120 
Q 563 259 563 628 
L 563 2694 
z
" transform="scale(0.015625)"/>
       <path id="Charter-Roman-69" d="M 959 3109 
L 1209 3109 
L 1209 366 
L 1319 263 
L 1663 231 
L 1663 0 
L 225 0 
L 225 231 
L 563 263 
L 672 366 
L 672 2681 
L 225 2681 
L 225 2881 
L 959 3109 
z
M 984 4531 
Q 1141 4531 1248 4422 
Q 1356 4313 1356 4159 
Q 1356 4006 1248 3900 
Q 1141 3794 984 3794 
Q 831 3794 723 3900 
Q 616 4006 616 4159 
Q 616 4316 723 4423 
Q 831 4531 984 4531 
z
" transform="scale(0.015625)"/>
       <path id="Charter-Roman-6d" d="M 2906 2713 
Q 3275 2931 3547 3037 
Q 3819 3144 4006 3144 
Q 4394 3144 4609 2892 
Q 4825 2641 4825 2188 
L 4825 2169 
L 4825 366 
L 4941 263 
L 5281 231 
L 5281 0 
L 3884 0 
L 3884 231 
L 4184 263 
L 4300 366 
L 4300 2059 
Q 4300 2400 4159 2559 
Q 4019 2719 3725 2719 
Q 3578 2719 3398 2667 
Q 3219 2616 3003 2509 
L 3003 366 
L 3116 263 
L 3419 231 
L 3419 0 
L 2053 0 
L 2053 231 
L 2363 263 
L 2472 366 
L 2472 2059 
Q 2472 2397 2333 2558 
Q 2194 2719 1906 2719 
Q 1750 2719 1570 2667 
Q 1391 2616 1178 2509 
L 1178 366 
L 1288 263 
L 1594 231 
L 1594 0 
L 191 0 
L 191 231 
L 538 263 
L 647 366 
L 647 2681 
L 191 2681 
L 191 2881 
L 934 3109 
L 1178 3109 
L 1178 2759 
Q 1513 2956 1761 3050 
Q 2009 3144 2203 3144 
Q 2438 3144 2617 3034 
Q 2797 2925 2906 2713 
z
" transform="scale(0.015625)"/>
       <path id="Charter-Roman-6f" d="M 1722 2869 
Q 1322 2869 1080 2508 
Q 838 2147 838 1544 
Q 838 941 1081 580 
Q 1325 219 1722 219 
Q 2125 219 2369 578 
Q 2613 938 2613 1544 
Q 2613 2144 2367 2506 
Q 2122 2869 1722 2869 
z
M 1722 3144 
Q 2375 3144 2794 2695 
Q 3213 2247 3213 1544 
Q 3213 841 2792 392 
Q 2372 -56 1722 -56 
Q 1072 -56 655 391 
Q 238 838 238 1544 
Q 238 2250 652 2697 
Q 1066 3144 1722 3144 
z
" transform="scale(0.015625)"/>
       <path id="Charter-Roman-66" d="M 184 0 
L 184 231 
L 525 263 
L 641 366 
L 641 2694 
L 231 2694 
L 231 2900 
L 641 2994 
L 641 3066 
Q 641 3838 997 4300 
Q 1353 4763 1941 4763 
Q 2156 4763 2297 4658 
Q 2438 4553 2438 4397 
Q 2438 4281 2369 4195 
Q 2300 4109 2175 4078 
L 1594 4459 
Q 1388 4366 1283 4114 
Q 1178 3863 1178 3463 
L 1178 2994 
L 2069 2994 
L 2069 2694 
L 1172 2694 
L 1172 366 
L 1281 263 
L 1678 231 
L 1678 0 
L 184 0 
z
" transform="scale(0.015625)"/>
       <path id="Charter-Roman-6b" d="M 159 0 
L 159 231 
L 506 263 
L 616 366 
L 616 4281 
L 122 4281 
L 122 4481 
L 903 4709 
L 1147 4709 
L 1147 1631 
L 1269 1631 
L 2247 2725 
L 2203 2816 
L 1913 2841 
L 1913 3078 
L 3128 3078 
L 3128 2841 
L 2719 2791 
L 1844 1863 
L 2969 275 
L 3378 244 
L 3378 0 
L 2381 0 
L 2381 213 
L 1516 1453 
L 1147 1453 
L 1147 366 
L 1259 263 
L 1563 231 
L 1563 0 
L 159 0 
z
" transform="scale(0.015625)"/>
       <path id="Charter-Roman-64" d="M 2450 569 
L 2450 2766 
Q 2275 2816 2136 2842 
Q 1997 2869 1888 2869 
Q 1397 2869 1095 2506 
Q 794 2144 794 1550 
Q 794 997 1055 672 
Q 1316 347 1753 347 
Q 1922 347 2095 401 
Q 2269 456 2450 569 
z
M 2450 4281 
L 1959 4281 
L 1959 4481 
L 2741 4709 
L 2981 4709 
L 2981 366 
L 3091 263 
L 3397 231 
L 3397 0 
L 2450 0 
L 2450 331 
Q 2200 131 1962 37 
Q 1725 -56 1466 -56 
Q 928 -56 579 364 
Q 231 784 231 1441 
Q 231 2203 689 2676 
Q 1147 3150 1881 3150 
Q 2009 3150 2153 3131 
Q 2297 3113 2450 3078 
L 2450 4281 
z
" transform="scale(0.015625)"/>
      </defs>
      <use xlink:href="#Charter-Roman-52"/>
      <use xlink:href="#Charter-Roman-75" x="60.974609"/>
      <use xlink:href="#Charter-Roman-6e" x="117.859375"/>
      <use xlink:href="#Charter-Roman-74" x="174.646484"/>
      <use xlink:href="#Charter-Roman-69" x="208.044922"/>
      <use xlink:href="#Charter-Roman-6d" x="236.023438"/>
      <use xlink:href="#Charter-Roman-65" x="320.300781"/>
      <use xlink:href="#Charter-Roman-20" x="369.421875"/>
      <use xlink:href="#Charter-Roman-6f" x="397.205078"/>
      <use xlink:href="#Charter-Roman-66" x="451.111328"/>
      <use xlink:href="#Charter-Roman-20" x="483.191406"/>
      <use xlink:href="#Charter-Roman-6d" x="510.974609"/>
      <use xlink:href="#Charter-Roman-61" x="595.251953"/>
      <use xlink:href="#Charter-Roman-6b" x="645.935547"/>
      <use xlink:href="#Charter-Roman-65" x="697.644531"/>
      <use xlink:href="#Charter-Roman-6e" x="746.765625"/>
      <use xlink:href="#Charter-Roman-6f" x="803.552734"/>
      <use xlink:href="#Charter-Roman-64" x="857.458984"/>
      <use xlink:href="#Charter-Roman-65" x="913.953125"/>
      <use xlink:href="#Charter-Roman-20" x="963.074219"/>
      <use xlink:href="#Charter-Roman-5b" x="990.857422"/>
      <use xlink:href="#Charter-Roman-6d" x="1032.947266"/>
      <use xlink:href="#Charter-Roman-73" x="1117.224609"/>
      <use xlink:href="#Charter-Roman-5d" x="1157.214844"/>
     </g>
    </g>
   </g>
   <g id="line2d_20">
    <path d="M 80.142443 250.568556 
L 83.307246 274.729756 
L 86.498644 274.192156 
L 89.663447 275.040556 
L 92.828251 273.772156 
L 95.993054 273.055356 
L 99.157857 273.452956 
L 102.349255 273.259756 
L 105.514058 272.730556 
L 108.678861 272.755756 
L 111.843664 272.341356 
L 115.035062 272.262956 
L 118.199865 271.420156 
L 121.364669 271.526556 
L 124.529472 271.394956 
L 127.694275 271.417356 
L 130.885673 270.868556 
L 134.050476 270.580156 
L 137.215279 270.580156 
L 140.380082 270.375756 
L 143.544885 270.479356 
L 146.736283 269.916556 
L 149.901087 269.759756 
L 153.06589 267.371356 
L 156.230693 268.846956 
L 159.395496 268.743356 
L 162.586894 268.608956 
L 165.751697 267.662556 
L 168.9165 268.323356 
L 172.081303 268.060156 
L 175.246106 268.043356 
L 178.437505 267.564556 
L 181.602308 267.441356 
L 184.767111 267.388156 
L 187.931914 267.337756 
L 191.123312 266.730156 
L 194.288115 266.609756 
L 197.452918 266.242956 
L 200.617721 266.343756 
L 203.782524 265.971356 
L 206.973922 265.632556 
L 210.138726 265.036156 
L 213.303529 265.080956 
L 216.468332 263.619356 
L 219.633135 264.201756 
L 222.824533 264.098156 
L 225.989336 263.420556 
L 229.154139 262.527356 
L 232.318942 263.392556 
L 235.483745 262.096156 
L 238.675144 262.166156 
L 241.839947 261.314956 
L 245.00475 262.101756 
L 248.169553 259.142156 
L 251.360951 260.410556 
L 254.525754 261.443756 
L 257.690557 261.740556 
L 260.85536 261.068556 
L 264.020163 261.264556 
L 267.211562 261.001356 
L 270.376365 260.976156 
L 273.541168 260.449756 
L 276.705971 260.320956 
L 279.870774 259.990556 
L 283.062172 258.996556 
L 286.226975 258.332956 
L 289.391778 258.598956 
L 292.556581 259.021756 
L 295.721385 258.419756 
L 298.912783 258.506556 
L 302.077586 258.769756 
L 305.242389 256.778956 
L 308.407192 256.311356 
L 311.571995 256.700556 
L 314.763393 257.002956 
L 317.928196 255.017756 
L 321.092999 255.675756 
L 324.257803 255.762556 
L 327.449201 254.729356 
L 330.614004 254.939356 
L 333.778807 253.978956 
" clip-path="url(#p3f7d7b851c)" style="fill: none; stroke-dasharray: 4.44,1.92; stroke-dashoffset: 0; stroke: #e36414; stroke-width: 1.2"/>
   </g>
   <g id="line2d_21">
    <path d="M 80.142443 234.429356 
L 83.307246 275.132956 
L 86.498644 275.253356 
L 89.663447 272.722156 
L 92.828251 274.749356 
L 95.993054 274.519756 
L 99.157857 273.307356 
L 102.349255 271.823356 
L 105.514058 274.726956 
L 108.678861 275.015356 
L 111.843664 274.116556 
L 115.035062 272.951756 
L 118.199865 270.445756 
L 121.364669 273.772156 
L 124.529472 273.696556 
L 127.694275 274.376956 
L 130.885673 272.551356 
L 134.050476 272.716556 
L 137.215279 274.340556 
L 140.380082 271.210156 
L 143.544885 272.929356 
L 146.736283 272.540156 
L 149.901087 270.734156 
L 153.06589 273.024556 
L 156.230693 271.823356 
L 159.395496 273.178556 
L 162.586894 273.368956 
L 165.751697 273.186956 
L 168.9165 273.027356 
L 172.081303 270.736956 
L 175.246106 272.559756 
L 178.437505 268.093756 
L 181.602308 270.686556 
L 184.767111 271.756156 
L 187.931914 271.660956 
L 191.123312 270.890956 
L 194.288115 269.227756 
L 197.452918 271.800956 
L 200.617721 267.514156 
L 203.782524 268.841356 
L 206.973922 265.845356 
L 210.138726 261.732156 
L 213.303529 264.106556 
L 216.468332 265.478556 
L 219.633135 252.598556 
L 222.824533 261.872156 
L 225.989336 259.926156 
L 229.154139 261.496956 
L 232.318942 261.970156 
L 235.483745 261.594956 
L 238.675144 260.015756 
L 241.839947 255.359356 
L 245.00475 255.359356 
L 248.169553 254.709756 
L 251.360951 252.640556 
L 254.525754 249.465356 
L 257.690557 245.128156 
L 260.85536 248.185756 
L 264.020163 249.664156 
L 267.211562 248.502156 
L 270.376365 244.164956 
L 273.541168 247.972956 
L 276.705971 244.400156 
L 279.870774 245.545356 
L 283.062172 242.487756 
L 286.226975 244.565356 
L 289.391778 239.640156 
L 292.556581 234.588956 
L 295.721385 238.786156 
L 298.912783 236.935356 
L 302.077586 235.885356 
L 305.242389 234.782156 
L 308.407192 226.972956 
L 311.571995 226.317756 
L 314.763393 224.592956 
L 317.928196 209.055756 
L 321.092999 210.184156 
L 324.257803 205.510956 
L 327.449201 193.137756 
L 330.614004 180.411756 
" clip-path="url(#p3f7d7b851c)" style="fill: none; stroke: #669bbc; stroke-width: 1.2; stroke-linecap: round"/>
   </g>
   <g id="patch_3">
    <path d="M 67.460625 289.256156 
L 67.460625 12.056156 
" style="fill: none; stroke: #cccccc; stroke-width: 1.25; stroke-linejoin: miter; stroke-linecap: square"/>
   </g>
   <g id="patch_4">
    <path d="M 346.460625 289.256156 
L 346.460625 12.056156 
" style="fill: none; stroke: #cccccc; stroke-width: 1.25; stroke-linejoin: miter; stroke-linecap: square"/>
   </g>
   <g id="patch_5">
    <path d="M 67.460625 289.256156 
L 346.460625 289.256156 
" style="fill: none; stroke: #cccccc; stroke-width: 1.25; stroke-linejoin: miter; stroke-linecap: square"/>
   </g>
   <g id="patch_6">
    <path d="M 67.460625 12.056156 
L 346.460625 12.056156 
" style="fill: none; stroke: #cccccc; stroke-width: 1.25; stroke-linejoin: miter; stroke-linecap: square"/>
   </g>
   <g id="legend_1">
    <g id="patch_7">
     <path d="M 76.700625 60.991031 
L 170.697 60.991031 
Q 173.337 60.991031 173.337 58.351031 
L 173.337 21.296156 
Q 173.337 18.656156 170.697 18.656156 
L 76.700625 18.656156 
Q 74.060625 18.656156 74.060625 21.296156 
L 74.060625 58.351031 
Q 74.060625 60.991031 76.700625 60.991031 
z
" style="fill: #ffffff; opacity: 0.8; stroke: #cccccc; stroke-linejoin: miter"/>
    </g>
    <g id="line2d_22">
     <path d="M 79.340625 29.028469 
L 92.540625 29.028469 
L 105.740625 29.028469 
" style="fill: none; stroke-dasharray: 4.44,1.92; stroke-dashoffset: 0; stroke: #e36414; stroke-width: 1.2"/>
    </g>
    <g id="text_22">
     <!-- Chaining -->
     <g style="fill: #262626" transform="translate(116.300625 33.648469) scale(0.132 -0.132)">
      <defs>
       <path id="Charter-Roman-43" d="M 3763 147 
Q 3447 38 3119 -20 
Q 2791 -78 2472 -78 
Q 2156 -78 1881 -12 
Q 1606 53 1381 178 
Q 866 472 570 998 
Q 275 1525 275 2150 
Q 275 3150 886 3761 
Q 1497 4372 2497 4372 
Q 2784 4372 3101 4317 
Q 3419 4263 3763 4153 
L 3763 3169 
L 3406 3169 
L 3309 3750 
L 3225 3866 
Q 3041 3950 2866 3990 
Q 2691 4031 2509 4031 
Q 1784 4031 1359 3537 
Q 934 3044 934 2194 
Q 934 1291 1378 777 
Q 1822 263 2606 263 
Q 2744 263 2883 283 
Q 3022 303 3163 347 
L 3263 447 
L 3419 1159 
L 3763 1159 
L 3763 147 
z
" transform="scale(0.015625)"/>
       <path id="Charter-Roman-68" d="M 903 4709 
L 1147 4709 
L 1147 2759 
Q 1525 2969 1764 3056 
Q 2003 3144 2181 3144 
Q 2603 3144 2825 2894 
Q 3047 2644 3047 2169 
L 3047 366 
L 3156 263 
L 3494 231 
L 3494 0 
L 2100 0 
L 2100 231 
L 2400 263 
L 2509 366 
L 2509 2059 
Q 2509 2419 2359 2569 
Q 2209 2719 1863 2719 
Q 1709 2719 1531 2667 
Q 1353 2616 1147 2509 
L 1147 366 
L 1259 263 
L 1563 231 
L 1563 0 
L 159 0 
L 159 231 
L 506 263 
L 616 366 
L 616 4281 
L 122 4281 
L 122 4481 
L 903 4709 
z
" transform="scale(0.015625)"/>
      </defs>
      <use xlink:href="#Charter-Roman-43"/>
      <use xlink:href="#Charter-Roman-68" x="63.183594"/>
      <use xlink:href="#Charter-Roman-61" x="119.580078"/>
      <use xlink:href="#Charter-Roman-69" x="170.263672"/>
      <use xlink:href="#Charter-Roman-6e" x="198.242188"/>
      <use xlink:href="#Charter-Roman-69" x="255.029297"/>
      <use xlink:href="#Charter-Roman-6e" x="283.007812"/>
      <use xlink:href="#Charter-Roman-67" x="339.794922"/>
     </g>
    </g>
    <g id="line2d_23">
     <path d="M 79.340625 48.215906 
L 92.540625 48.215906 
L 105.740625 48.215906 
" style="fill: none; stroke: #669bbc; stroke-width: 1.2; stroke-linecap: round"/>
    </g>
    <g id="text_23">
     <!-- Probing -->
     <g style="fill: #262626" transform="translate(116.300625 52.835906) scale(0.132 -0.132)">
      <defs>
       <path id="Charter-Roman-50" d="M 1259 1953 
Q 1434 1934 1529 1926 
Q 1625 1919 1684 1919 
Q 2231 1919 2517 2197 
Q 2803 2475 2803 3003 
Q 2803 3513 2508 3756 
Q 2213 4000 1594 4000 
Q 1463 4000 1392 3997 
Q 1322 3994 1259 3988 
L 1259 1953 
z
M 213 0 
L 213 263 
L 575 294 
L 684 384 
L 684 3909 
L 575 4000 
L 159 4038 
L 159 4294 
L 1619 4294 
Q 2581 4294 2989 3991 
Q 3397 3688 3397 2988 
Q 3397 2363 2948 1988 
Q 2500 1613 1741 1613 
Q 1663 1613 1550 1620 
Q 1438 1628 1263 1644 
L 1259 384 
L 1369 294 
L 1825 263 
L 1825 0 
L 213 0 
z
" transform="scale(0.015625)"/>
       <path id="Charter-Roman-72" d="M 191 0 
L 191 231 
L 531 263 
L 641 366 
L 641 2681 
L 191 2681 
L 191 2881 
L 934 3109 
L 1178 3109 
L 1178 2509 
Q 1334 2669 1504 2823 
Q 1675 2978 1863 3128 
Q 1891 3138 1923 3141 
Q 1956 3144 2022 3144 
Q 2119 3144 2212 3123 
Q 2306 3103 2406 3059 
L 2406 2509 
L 2203 2509 
Q 2141 2584 2058 2623 
Q 1975 2663 1875 2663 
Q 1722 2663 1551 2548 
Q 1381 2434 1178 2194 
L 1178 366 
L 1288 263 
L 1734 231 
L 1734 0 
L 191 0 
z
" transform="scale(0.015625)"/>
      </defs>
      <use xlink:href="#Charter-Roman-50"/>
      <use xlink:href="#Charter-Roman-72" x="55.810547"/>
      <use xlink:href="#Charter-Roman-6f" x="93.994141"/>
      <use xlink:href="#Charter-Roman-62" x="147.900391"/>
      <use xlink:href="#Charter-Roman-69" x="201.806641"/>
      <use xlink:href="#Charter-Roman-6e" x="229.785156"/>
      <use xlink:href="#Charter-Roman-67" x="286.572266"/>
     </g>
    </g>
   </g>
  </g>
 </g>
 <defs>
  <clipPath id="p3f7d7b851c">
   <rect x="67.460625" y="12.056156" width="279" height="277.2"/>
  </clipPath>
 </defs>
</svg>
