<?xml version="1.0" encoding="utf-8" standalone="no"?>
<!DOCTYPE svg PUBLIC "-//W3C//DTD SVG 1.1//EN"
  "http://www.w3.org/Graphics/SVG/1.1/DTD/svg11.dtd">
<svg xmlns:xlink="http://www.w3.org/1999/xlink" width="373.880333pt" height="337.081641pt" viewBox="0 0 373.880333 337.081641" xmlns="http://www.w3.org/2000/svg" version="1.1">
 <metadata>
  <rdf:RDF xmlns:dc="http://purl.org/dc/elements/1.1/" xmlns:cc="http://creativecommons.org/ns#" xmlns:rdf="http://www.w3.org/1999/02/22-rdf-syntax-ns#">
   <cc:Work>
    <dc:type rdf:resource="http://purl.org/dc/dcmitype/StillImage"/>
    <dc:date>2023-08-02T16:43:37.371639</dc:date>
    <dc:format>image/svg+xml</dc:format>
    <dc:creator>
     <cc:Agent>
      <dc:title>Matplotlib v3.7.1, https://matplotlib.org/</dc:title>
     </cc:Agent>
    </dc:creator>
   </cc:Work>
  </rdf:RDF>
 </metadata>
 <defs>
  <style type="text/css">*{stroke-linejoin: round; stroke-linecap: butt}</style>
 </defs>
 <g id="figure_1">
  <g id="patch_1">
   <path d="M 0 337.081641 
L 373.880333 337.081641 
L 373.880333 0 
L 0 0 
z
" style="fill: #ffffff"/>
  </g>
  <g id="axes_1">
   <g id="patch_2">
    <path d="M 77.450156 284.4 
L 356.450156 284.4 
L 356.450156 7.2 
L 77.450156 7.2 
z
" style="fill: #ffffff"/>
   </g>
   <g id="matplotlib.axis_1">
    <g id="xtick_1">
     <g id="line2d_1">
      <path d="M 86.967171 284.4 
L 86.967171 7.2 
" clip-path="url(#p60b3dba711)" style="fill: none; stroke: #cccccc; stroke-linecap: round"/>
     </g>
     <g id="text_1">
      <!-- 0 -->
      <g style="fill: #262626" transform="translate(82.379398 305.710391) scale(0.165 -0.165)">
       <defs>
        <path id="ArialMT-30" d="M 266 2259 
Q 266 3072 433 3567 
Q 600 4063 929 4331 
Q 1259 4600 1759 4600 
Q 2128 4600 2406 4451 
Q 2684 4303 2865 4023 
Q 3047 3744 3150 3342 
Q 3253 2941 3253 2259 
Q 3253 1453 3087 958 
Q 2922 463 2592 192 
Q 2263 -78 1759 -78 
Q 1097 -78 719 397 
Q 266 969 266 2259 
z
M 844 2259 
Q 844 1131 1108 757 
Q 1372 384 1759 384 
Q 2147 384 2411 759 
Q 2675 1134 2675 2259 
Q 2675 3391 2411 3762 
Q 2147 4134 1753 4134 
Q 1366 4134 1134 3806 
Q 844 3388 844 2259 
z
" transform="scale(0.015625)"/>
       </defs>
       <use xlink:href="#ArialMT-30"/>
      </g>
     </g>
    </g>
    <g id="xtick_2">
     <g id="line2d_2">
      <path d="M 113.562155 284.4 
L 113.562155 7.2 
" clip-path="url(#p60b3dba711)" style="fill: none; stroke: #cccccc; stroke-linecap: round"/>
     </g>
     <g id="text_2">
      <!-- 10 -->
      <g style="fill: #262626" transform="translate(104.386609 305.710391) scale(0.165 -0.165)">
       <defs>
        <path id="ArialMT-31" d="M 2384 0 
L 1822 0 
L 1822 3584 
Q 1619 3391 1289 3197 
Q 959 3003 697 2906 
L 697 3450 
Q 1169 3672 1522 3987 
Q 1875 4303 2022 4600 
L 2384 4600 
L 2384 0 
z
" transform="scale(0.015625)"/>
       </defs>
       <use xlink:href="#ArialMT-31"/>
       <use xlink:href="#ArialMT-30" x="55.615234"/>
      </g>
     </g>
    </g>
    <g id="xtick_3">
     <g id="line2d_3">
      <path d="M 140.15714 284.4 
L 140.15714 7.2 
" clip-path="url(#p60b3dba711)" style="fill: none; stroke: #cccccc; stroke-linecap: round"/>
     </g>
     <g id="text_3">
      <!-- 20 -->
      <g style="fill: #262626" transform="translate(130.981593 305.710391) scale(0.165 -0.165)">
       <defs>
        <path id="ArialMT-32" d="M 3222 541 
L 3222 0 
L 194 0 
Q 188 203 259 391 
Q 375 700 629 1000 
Q 884 1300 1366 1694 
Q 2113 2306 2375 2664 
Q 2638 3022 2638 3341 
Q 2638 3675 2398 3904 
Q 2159 4134 1775 4134 
Q 1369 4134 1125 3890 
Q 881 3647 878 3216 
L 300 3275 
Q 359 3922 746 4261 
Q 1134 4600 1788 4600 
Q 2447 4600 2831 4234 
Q 3216 3869 3216 3328 
Q 3216 3053 3103 2787 
Q 2991 2522 2730 2228 
Q 2469 1934 1863 1422 
Q 1356 997 1212 845 
Q 1069 694 975 541 
L 3222 541 
z
" transform="scale(0.015625)"/>
       </defs>
       <use xlink:href="#ArialMT-32"/>
       <use xlink:href="#ArialMT-30" x="55.615234"/>
      </g>
     </g>
    </g>
    <g id="xtick_4">
     <g id="line2d_4">
      <path d="M 166.752124 284.4 
L 166.752124 7.2 
" clip-path="url(#p60b3dba711)" style="fill: none; stroke: #cccccc; stroke-linecap: round"/>
     </g>
     <g id="text_4">
      <!-- 30 -->
      <g style="fill: #262626" transform="translate(157.576577 305.710391) scale(0.165 -0.165)">
       <defs>
        <path id="ArialMT-33" d="M 269 1209 
L 831 1284 
Q 928 806 1161 595 
Q 1394 384 1728 384 
Q 2125 384 2398 659 
Q 2672 934 2672 1341 
Q 2672 1728 2419 1979 
Q 2166 2231 1775 2231 
Q 1616 2231 1378 2169 
L 1441 2663 
Q 1497 2656 1531 2656 
Q 1891 2656 2178 2843 
Q 2466 3031 2466 3422 
Q 2466 3731 2256 3934 
Q 2047 4138 1716 4138 
Q 1388 4138 1169 3931 
Q 950 3725 888 3313 
L 325 3413 
Q 428 3978 793 4289 
Q 1159 4600 1703 4600 
Q 2078 4600 2393 4439 
Q 2709 4278 2876 4000 
Q 3044 3722 3044 3409 
Q 3044 3113 2884 2869 
Q 2725 2625 2413 2481 
Q 2819 2388 3044 2092 
Q 3269 1797 3269 1353 
Q 3269 753 2831 336 
Q 2394 -81 1725 -81 
Q 1122 -81 723 278 
Q 325 638 269 1209 
z
" transform="scale(0.015625)"/>
       </defs>
       <use xlink:href="#ArialMT-33"/>
       <use xlink:href="#ArialMT-30" x="55.615234"/>
      </g>
     </g>
    </g>
    <g id="xtick_5">
     <g id="line2d_5">
      <path d="M 193.347108 284.4 
L 193.347108 7.2 
" clip-path="url(#p60b3dba711)" style="fill: none; stroke: #cccccc; stroke-linecap: round"/>
     </g>
     <g id="text_5">
      <!-- 40 -->
      <g style="fill: #262626" transform="translate(184.171561 305.710391) scale(0.165 -0.165)">
       <defs>
        <path id="ArialMT-34" d="M 2069 0 
L 2069 1097 
L 81 1097 
L 81 1613 
L 2172 4581 
L 2631 4581 
L 2631 1613 
L 3250 1613 
L 3250 1097 
L 2631 1097 
L 2631 0 
L 2069 0 
z
M 2069 1613 
L 2069 3678 
L 634 1613 
L 2069 1613 
z
" transform="scale(0.015625)"/>
       </defs>
       <use xlink:href="#ArialMT-34"/>
       <use xlink:href="#ArialMT-30" x="55.615234"/>
      </g>
     </g>
    </g>
    <g id="xtick_6">
     <g id="line2d_6">
      <path d="M 219.942092 284.4 
L 219.942092 7.2 
" clip-path="url(#p60b3dba711)" style="fill: none; stroke: #cccccc; stroke-linecap: round"/>
     </g>
     <g id="text_6">
      <!-- 50 -->
      <g style="fill: #262626" transform="translate(210.766545 305.710391) scale(0.165 -0.165)">
       <defs>
        <path id="ArialMT-35" d="M 266 1200 
L 856 1250 
Q 922 819 1161 601 
Q 1400 384 1738 384 
Q 2144 384 2425 690 
Q 2706 997 2706 1503 
Q 2706 1984 2436 2262 
Q 2166 2541 1728 2541 
Q 1456 2541 1237 2417 
Q 1019 2294 894 2097 
L 366 2166 
L 809 4519 
L 3088 4519 
L 3088 3981 
L 1259 3981 
L 1013 2750 
Q 1425 3038 1878 3038 
Q 2478 3038 2890 2622 
Q 3303 2206 3303 1553 
Q 3303 931 2941 478 
Q 2500 -78 1738 -78 
Q 1113 -78 717 272 
Q 322 622 266 1200 
z
" transform="scale(0.015625)"/>
       </defs>
       <use xlink:href="#ArialMT-35"/>
       <use xlink:href="#ArialMT-30" x="55.615234"/>
      </g>
     </g>
    </g>
    <g id="xtick_7">
     <g id="line2d_7">
      <path d="M 246.537076 284.4 
L 246.537076 7.2 
" clip-path="url(#p60b3dba711)" style="fill: none; stroke: #cccccc; stroke-linecap: round"/>
     </g>
     <g id="text_7">
      <!-- 60 -->
      <g style="fill: #262626" transform="translate(237.361529 305.710391) scale(0.165 -0.165)">
       <defs>
        <path id="ArialMT-36" d="M 3184 3459 
L 2625 3416 
Q 2550 3747 2413 3897 
Q 2184 4138 1850 4138 
Q 1581 4138 1378 3988 
Q 1113 3794 959 3422 
Q 806 3050 800 2363 
Q 1003 2672 1297 2822 
Q 1591 2972 1913 2972 
Q 2475 2972 2870 2558 
Q 3266 2144 3266 1488 
Q 3266 1056 3080 686 
Q 2894 316 2569 119 
Q 2244 -78 1831 -78 
Q 1128 -78 684 439 
Q 241 956 241 2144 
Q 241 3472 731 4075 
Q 1159 4600 1884 4600 
Q 2425 4600 2770 4297 
Q 3116 3994 3184 3459 
z
M 888 1484 
Q 888 1194 1011 928 
Q 1134 663 1356 523 
Q 1578 384 1822 384 
Q 2178 384 2434 671 
Q 2691 959 2691 1453 
Q 2691 1928 2437 2201 
Q 2184 2475 1800 2475 
Q 1419 2475 1153 2201 
Q 888 1928 888 1484 
z
" transform="scale(0.015625)"/>
       </defs>
       <use xlink:href="#ArialMT-36"/>
       <use xlink:href="#ArialMT-30" x="55.615234"/>
      </g>
     </g>
    </g>
    <g id="xtick_8">
     <g id="line2d_8">
      <path d="M 273.13206 284.4 
L 273.13206 7.2 
" clip-path="url(#p60b3dba711)" style="fill: none; stroke: #cccccc; stroke-linecap: round"/>
     </g>
     <g id="text_8">
      <!-- 70 -->
      <g style="fill: #262626" transform="translate(263.956513 305.710391) scale(0.165 -0.165)">
       <defs>
        <path id="ArialMT-37" d="M 303 3981 
L 303 4522 
L 3269 4522 
L 3269 4084 
Q 2831 3619 2401 2847 
Q 1972 2075 1738 1259 
Q 1569 684 1522 0 
L 944 0 
Q 953 541 1156 1306 
Q 1359 2072 1739 2783 
Q 2119 3494 2547 3981 
L 303 3981 
z
" transform="scale(0.015625)"/>
       </defs>
       <use xlink:href="#ArialMT-37"/>
       <use xlink:href="#ArialMT-30" x="55.615234"/>
      </g>
     </g>
    </g>
    <g id="xtick_9">
     <g id="line2d_9">
      <path d="M 299.727044 284.4 
L 299.727044 7.2 
" clip-path="url(#p60b3dba711)" style="fill: none; stroke: #cccccc; stroke-linecap: round"/>
     </g>
     <g id="text_9">
      <!-- 80 -->
      <g style="fill: #262626" transform="translate(290.551497 305.710391) scale(0.165 -0.165)">
       <defs>
        <path id="ArialMT-38" d="M 1131 2484 
Q 781 2613 612 2850 
Q 444 3088 444 3419 
Q 444 3919 803 4259 
Q 1163 4600 1759 4600 
Q 2359 4600 2725 4251 
Q 3091 3903 3091 3403 
Q 3091 3084 2923 2848 
Q 2756 2613 2416 2484 
Q 2838 2347 3058 2040 
Q 3278 1734 3278 1309 
Q 3278 722 2862 322 
Q 2447 -78 1769 -78 
Q 1091 -78 675 323 
Q 259 725 259 1325 
Q 259 1772 486 2073 
Q 713 2375 1131 2484 
z
M 1019 3438 
Q 1019 3113 1228 2906 
Q 1438 2700 1772 2700 
Q 2097 2700 2305 2904 
Q 2513 3109 2513 3406 
Q 2513 3716 2298 3927 
Q 2084 4138 1766 4138 
Q 1444 4138 1231 3931 
Q 1019 3725 1019 3438 
z
M 838 1322 
Q 838 1081 952 856 
Q 1066 631 1291 507 
Q 1516 384 1775 384 
Q 2178 384 2440 643 
Q 2703 903 2703 1303 
Q 2703 1709 2433 1975 
Q 2163 2241 1756 2241 
Q 1359 2241 1098 1978 
Q 838 1716 838 1322 
z
" transform="scale(0.015625)"/>
       </defs>
       <use xlink:href="#ArialMT-38"/>
       <use xlink:href="#ArialMT-30" x="55.615234"/>
      </g>
     </g>
    </g>
    <g id="xtick_10">
     <g id="line2d_10">
      <path d="M 326.322028 284.4 
L 326.322028 7.2 
" clip-path="url(#p60b3dba711)" style="fill: none; stroke: #cccccc; stroke-linecap: round"/>
     </g>
     <g id="text_10">
      <!-- 90 -->
      <g style="fill: #262626" transform="translate(317.146482 305.710391) scale(0.165 -0.165)">
       <defs>
        <path id="ArialMT-39" d="M 350 1059 
L 891 1109 
Q 959 728 1153 556 
Q 1347 384 1650 384 
Q 1909 384 2104 503 
Q 2300 622 2425 820 
Q 2550 1019 2634 1356 
Q 2719 1694 2719 2044 
Q 2719 2081 2716 2156 
Q 2547 1888 2255 1720 
Q 1963 1553 1622 1553 
Q 1053 1553 659 1965 
Q 266 2378 266 3053 
Q 266 3750 677 4175 
Q 1088 4600 1706 4600 
Q 2153 4600 2523 4359 
Q 2894 4119 3086 3673 
Q 3278 3228 3278 2384 
Q 3278 1506 3087 986 
Q 2897 466 2520 194 
Q 2144 -78 1638 -78 
Q 1100 -78 759 220 
Q 419 519 350 1059 
z
M 2653 3081 
Q 2653 3566 2395 3850 
Q 2138 4134 1775 4134 
Q 1400 4134 1122 3828 
Q 844 3522 844 3034 
Q 844 2597 1108 2323 
Q 1372 2050 1759 2050 
Q 2150 2050 2401 2323 
Q 2653 2597 2653 3081 
z
" transform="scale(0.015625)"/>
       </defs>
       <use xlink:href="#ArialMT-39"/>
       <use xlink:href="#ArialMT-30" x="55.615234"/>
      </g>
     </g>
    </g>
    <g id="xtick_11">
     <g id="line2d_11">
      <path d="M 352.917013 284.4 
L 352.917013 7.2 
" clip-path="url(#p60b3dba711)" style="fill: none; stroke: #cccccc; stroke-linecap: round"/>
     </g>
     <g id="text_11">
      <!-- 100 -->
      <g style="fill: #262626" transform="translate(339.153692 305.710391) scale(0.165 -0.165)">
       <use xlink:href="#ArialMT-31"/>
       <use xlink:href="#ArialMT-30" x="55.615234"/>
       <use xlink:href="#ArialMT-30" x="111.230469"/>
      </g>
     </g>
    </g>
    <g id="text_12">
     <!-- Table usage [%] -->
     <g style="fill: #262626" transform="translate(152.916563 326.093203) scale(0.18 -0.18)">
      <defs>
       <path id="ArialMT-54" d="M 1659 0 
L 1659 4041 
L 150 4041 
L 150 4581 
L 3781 4581 
L 3781 4041 
L 2266 4041 
L 2266 0 
L 1659 0 
z
" transform="scale(0.015625)"/>
       <path id="ArialMT-61" d="M 2588 409 
Q 2275 144 1986 34 
Q 1697 -75 1366 -75 
Q 819 -75 525 192 
Q 231 459 231 875 
Q 231 1119 342 1320 
Q 453 1522 633 1644 
Q 813 1766 1038 1828 
Q 1203 1872 1538 1913 
Q 2219 1994 2541 2106 
Q 2544 2222 2544 2253 
Q 2544 2597 2384 2738 
Q 2169 2928 1744 2928 
Q 1347 2928 1158 2789 
Q 969 2650 878 2297 
L 328 2372 
Q 403 2725 575 2942 
Q 747 3159 1072 3276 
Q 1397 3394 1825 3394 
Q 2250 3394 2515 3294 
Q 2781 3194 2906 3042 
Q 3031 2891 3081 2659 
Q 3109 2516 3109 2141 
L 3109 1391 
Q 3109 606 3145 398 
Q 3181 191 3288 0 
L 2700 0 
Q 2613 175 2588 409 
z
M 2541 1666 
Q 2234 1541 1622 1453 
Q 1275 1403 1131 1340 
Q 988 1278 909 1158 
Q 831 1038 831 891 
Q 831 666 1001 516 
Q 1172 366 1500 366 
Q 1825 366 2078 508 
Q 2331 650 2450 897 
Q 2541 1088 2541 1459 
L 2541 1666 
z
" transform="scale(0.015625)"/>
       <path id="ArialMT-62" d="M 941 0 
L 419 0 
L 419 4581 
L 981 4581 
L 981 2947 
Q 1338 3394 1891 3394 
Q 2197 3394 2470 3270 
Q 2744 3147 2920 2923 
Q 3097 2700 3197 2384 
Q 3297 2069 3297 1709 
Q 3297 856 2875 390 
Q 2453 -75 1863 -75 
Q 1275 -75 941 416 
L 941 0 
z
M 934 1684 
Q 934 1088 1097 822 
Q 1363 388 1816 388 
Q 2184 388 2453 708 
Q 2722 1028 2722 1663 
Q 2722 2313 2464 2622 
Q 2206 2931 1841 2931 
Q 1472 2931 1203 2611 
Q 934 2291 934 1684 
z
" transform="scale(0.015625)"/>
       <path id="ArialMT-6c" d="M 409 0 
L 409 4581 
L 972 4581 
L 972 0 
L 409 0 
z
" transform="scale(0.015625)"/>
       <path id="ArialMT-65" d="M 2694 1069 
L 3275 997 
Q 3138 488 2766 206 
Q 2394 -75 1816 -75 
Q 1088 -75 661 373 
Q 234 822 234 1631 
Q 234 2469 665 2931 
Q 1097 3394 1784 3394 
Q 2450 3394 2872 2941 
Q 3294 2488 3294 1666 
Q 3294 1616 3291 1516 
L 816 1516 
Q 847 969 1125 678 
Q 1403 388 1819 388 
Q 2128 388 2347 550 
Q 2566 713 2694 1069 
z
M 847 1978 
L 2700 1978 
Q 2663 2397 2488 2606 
Q 2219 2931 1791 2931 
Q 1403 2931 1139 2672 
Q 875 2413 847 1978 
z
" transform="scale(0.015625)"/>
       <path id="ArialMT-20" transform="scale(0.015625)"/>
       <path id="ArialMT-75" d="M 2597 0 
L 2597 488 
Q 2209 -75 1544 -75 
Q 1250 -75 995 37 
Q 741 150 617 320 
Q 494 491 444 738 
Q 409 903 409 1263 
L 409 3319 
L 972 3319 
L 972 1478 
Q 972 1038 1006 884 
Q 1059 663 1231 536 
Q 1403 409 1656 409 
Q 1909 409 2131 539 
Q 2353 669 2445 892 
Q 2538 1116 2538 1541 
L 2538 3319 
L 3100 3319 
L 3100 0 
L 2597 0 
z
" transform="scale(0.015625)"/>
       <path id="ArialMT-73" d="M 197 991 
L 753 1078 
Q 800 744 1014 566 
Q 1228 388 1613 388 
Q 2000 388 2187 545 
Q 2375 703 2375 916 
Q 2375 1106 2209 1216 
Q 2094 1291 1634 1406 
Q 1016 1563 777 1677 
Q 538 1791 414 1992 
Q 291 2194 291 2438 
Q 291 2659 392 2848 
Q 494 3038 669 3163 
Q 800 3259 1026 3326 
Q 1253 3394 1513 3394 
Q 1903 3394 2198 3281 
Q 2494 3169 2634 2976 
Q 2775 2784 2828 2463 
L 2278 2388 
Q 2241 2644 2061 2787 
Q 1881 2931 1553 2931 
Q 1166 2931 1000 2803 
Q 834 2675 834 2503 
Q 834 2394 903 2306 
Q 972 2216 1119 2156 
Q 1203 2125 1616 2013 
Q 2213 1853 2448 1751 
Q 2684 1650 2818 1456 
Q 2953 1263 2953 975 
Q 2953 694 2789 445 
Q 2625 197 2315 61 
Q 2006 -75 1616 -75 
Q 969 -75 630 194 
Q 291 463 197 991 
z
" transform="scale(0.015625)"/>
       <path id="ArialMT-67" d="M 319 -275 
L 866 -356 
Q 900 -609 1056 -725 
Q 1266 -881 1628 -881 
Q 2019 -881 2231 -725 
Q 2444 -569 2519 -288 
Q 2563 -116 2559 434 
Q 2191 0 1641 0 
Q 956 0 581 494 
Q 206 988 206 1678 
Q 206 2153 378 2554 
Q 550 2956 876 3175 
Q 1203 3394 1644 3394 
Q 2231 3394 2613 2919 
L 2613 3319 
L 3131 3319 
L 3131 450 
Q 3131 -325 2973 -648 
Q 2816 -972 2473 -1159 
Q 2131 -1347 1631 -1347 
Q 1038 -1347 672 -1080 
Q 306 -813 319 -275 
z
M 784 1719 
Q 784 1066 1043 766 
Q 1303 466 1694 466 
Q 2081 466 2343 764 
Q 2606 1063 2606 1700 
Q 2606 2309 2336 2618 
Q 2066 2928 1684 2928 
Q 1309 2928 1046 2623 
Q 784 2319 784 1719 
z
" transform="scale(0.015625)"/>
       <path id="ArialMT-5b" d="M 434 -1272 
L 434 4581 
L 1675 4581 
L 1675 4116 
L 997 4116 
L 997 -806 
L 1675 -806 
L 1675 -1272 
L 434 -1272 
z
" transform="scale(0.015625)"/>
       <path id="ArialMT-25" d="M 372 3481 
Q 372 3972 619 4315 
Q 866 4659 1334 4659 
Q 1766 4659 2048 4351 
Q 2331 4044 2331 3447 
Q 2331 2866 2045 2552 
Q 1759 2238 1341 2238 
Q 925 2238 648 2547 
Q 372 2856 372 3481 
z
M 1350 4272 
Q 1141 4272 1002 4090 
Q 863 3909 863 3425 
Q 863 2984 1003 2804 
Q 1144 2625 1350 2625 
Q 1563 2625 1702 2806 
Q 1841 2988 1841 3469 
Q 1841 3913 1700 4092 
Q 1559 4272 1350 4272 
z
M 1353 -169 
L 3859 4659 
L 4316 4659 
L 1819 -169 
L 1353 -169 
z
M 3334 1075 
Q 3334 1569 3581 1911 
Q 3828 2253 4300 2253 
Q 4731 2253 5014 1945 
Q 5297 1638 5297 1041 
Q 5297 459 5011 145 
Q 4725 -169 4303 -169 
Q 3888 -169 3611 142 
Q 3334 453 3334 1075 
z
M 4316 1866 
Q 4103 1866 3964 1684 
Q 3825 1503 3825 1019 
Q 3825 581 3965 400 
Q 4106 219 4313 219 
Q 4528 219 4667 400 
Q 4806 581 4806 1063 
Q 4806 1506 4665 1686 
Q 4525 1866 4316 1866 
z
" transform="scale(0.015625)"/>
       <path id="ArialMT-5d" d="M 1363 -1272 
L 122 -1272 
L 122 -806 
L 800 -806 
L 800 4116 
L 122 4116 
L 122 4581 
L 1363 4581 
L 1363 -1272 
z
" transform="scale(0.015625)"/>
      </defs>
      <use xlink:href="#ArialMT-54"/>
      <use xlink:href="#ArialMT-61" x="49.958984"/>
      <use xlink:href="#ArialMT-62" x="105.574219"/>
      <use xlink:href="#ArialMT-6c" x="161.189453"/>
      <use xlink:href="#ArialMT-65" x="183.40625"/>
      <use xlink:href="#ArialMT-20" x="239.021484"/>
      <use xlink:href="#ArialMT-75" x="266.804688"/>
      <use xlink:href="#ArialMT-73" x="322.419922"/>
      <use xlink:href="#ArialMT-61" x="372.419922"/>
      <use xlink:href="#ArialMT-67" x="428.035156"/>
      <use xlink:href="#ArialMT-65" x="483.650391"/>
      <use xlink:href="#ArialMT-20" x="539.265625"/>
      <use xlink:href="#ArialMT-5b" x="567.048828"/>
      <use xlink:href="#ArialMT-25" x="594.832031"/>
      <use xlink:href="#ArialMT-5d" x="683.748047"/>
     </g>
    </g>
   </g>
   <g id="matplotlib.axis_2">
    <g id="ytick_1">
     <g id="line2d_12">
      <path d="M 77.450156 284.4 
L 356.450156 284.4 
" clip-path="url(#p60b3dba711)" style="fill: none; stroke: #cccccc; stroke-linecap: round"/>
     </g>
     <g id="text_13">
      <!-- 0.0 -->
      <g style="fill: #262626" transform="translate(45.015156 290.305195) scale(0.165 -0.165)">
       <defs>
        <path id="ArialMT-2e" d="M 581 0 
L 581 641 
L 1222 641 
L 1222 0 
L 581 0 
z
" transform="scale(0.015625)"/>
       </defs>
       <use xlink:href="#ArialMT-30"/>
       <use xlink:href="#ArialMT-2e" x="55.615234"/>
       <use xlink:href="#ArialMT-30" x="83.398438"/>
      </g>
     </g>
    </g>
    <g id="ytick_2">
     <g id="line2d_13">
      <path d="M 77.450156 259.399706 
L 356.450156 259.399706 
" clip-path="url(#p60b3dba711)" style="fill: none; stroke: #cccccc; stroke-linecap: round"/>
     </g>
     <g id="text_14">
      <!-- 15.7 -->
      <g style="fill: #262626" transform="translate(35.839609 265.304902) scale(0.165 -0.165)">
       <use xlink:href="#ArialMT-31"/>
       <use xlink:href="#ArialMT-35" x="55.615234"/>
       <use xlink:href="#ArialMT-2e" x="111.230469"/>
       <use xlink:href="#ArialMT-37" x="139.013672"/>
      </g>
     </g>
    </g>
    <g id="ytick_3">
     <g id="line2d_14">
      <path d="M 77.450156 234.399413 
L 356.450156 234.399413 
" clip-path="url(#p60b3dba711)" style="fill: none; stroke: #cccccc; stroke-linecap: round"/>
     </g>
     <g id="text_15">
      <!-- 31.4 -->
      <g style="fill: #262626" transform="translate(35.839609 240.304608) scale(0.165 -0.165)">
       <use xlink:href="#ArialMT-33"/>
       <use xlink:href="#ArialMT-31" x="55.615234"/>
       <use xlink:href="#ArialMT-2e" x="111.230469"/>
       <use xlink:href="#ArialMT-34" x="139.013672"/>
      </g>
     </g>
    </g>
    <g id="ytick_4">
     <g id="line2d_15">
      <path d="M 77.450156 209.399119 
L 356.450156 209.399119 
" clip-path="url(#p60b3dba711)" style="fill: none; stroke: #cccccc; stroke-linecap: round"/>
     </g>
     <g id="text_16">
      <!-- 47.1 -->
      <g style="fill: #262626" transform="translate(35.839609 215.304315) scale(0.165 -0.165)">
       <use xlink:href="#ArialMT-34"/>
       <use xlink:href="#ArialMT-37" x="55.615234"/>
       <use xlink:href="#ArialMT-2e" x="111.230469"/>
       <use xlink:href="#ArialMT-31" x="139.013672"/>
      </g>
     </g>
    </g>
    <g id="ytick_5">
     <g id="line2d_16">
      <path d="M 77.450156 184.398826 
L 356.450156 184.398826 
" clip-path="url(#p60b3dba711)" style="fill: none; stroke: #cccccc; stroke-linecap: round"/>
     </g>
     <g id="text_17">
      <!-- 62.9 -->
      <g style="fill: #262626" transform="translate(35.839609 190.304021) scale(0.165 -0.165)">
       <use xlink:href="#ArialMT-36"/>
       <use xlink:href="#ArialMT-32" x="55.615234"/>
       <use xlink:href="#ArialMT-2e" x="111.230469"/>
       <use xlink:href="#ArialMT-39" x="139.013672"/>
      </g>
     </g>
    </g>
    <g id="ytick_6">
     <g id="line2d_17">
      <path d="M 77.450156 159.398532 
L 356.450156 159.398532 
" clip-path="url(#p60b3dba711)" style="fill: none; stroke: #cccccc; stroke-linecap: round"/>
     </g>
     <g id="text_18">
      <!-- 78.6 -->
      <g style="fill: #262626" transform="translate(35.839609 165.303728) scale(0.165 -0.165)">
       <use xlink:href="#ArialMT-37"/>
       <use xlink:href="#ArialMT-38" x="55.615234"/>
       <use xlink:href="#ArialMT-2e" x="111.230469"/>
       <use xlink:href="#ArialMT-36" x="139.013672"/>
      </g>
     </g>
    </g>
    <g id="ytick_7">
     <g id="line2d_18">
      <path d="M 77.450156 134.398239 
L 356.450156 134.398239 
" clip-path="url(#p60b3dba711)" style="fill: none; stroke: #cccccc; stroke-linecap: round"/>
     </g>
     <g id="text_19">
      <!-- 94.3 -->
      <g style="fill: #262626" transform="translate(35.839609 140.303434) scale(0.165 -0.165)">
       <use xlink:href="#ArialMT-39"/>
       <use xlink:href="#ArialMT-34" x="55.615234"/>
       <use xlink:href="#ArialMT-2e" x="111.230469"/>
       <use xlink:href="#ArialMT-33" x="139.013672"/>
      </g>
     </g>
    </g>
    <g id="ytick_8">
     <g id="line2d_19">
      <path d="M 77.450156 109.397945 
L 356.450156 109.397945 
" clip-path="url(#p60b3dba711)" style="fill: none; stroke: #cccccc; stroke-linecap: round"/>
     </g>
     <g id="text_20">
      <!-- 110.0 -->
      <g style="fill: #262626" transform="translate(27.880938 115.303141) scale(0.165 -0.165)">
       <use xlink:href="#ArialMT-31"/>
       <use xlink:href="#ArialMT-31" x="48.240234"/>
       <use xlink:href="#ArialMT-30" x="103.855469"/>
       <use xlink:href="#ArialMT-2e" x="159.470703"/>
       <use xlink:href="#ArialMT-30" x="187.253906"/>
      </g>
     </g>
    </g>
    <g id="text_21">
     <!-- Runtime of makenode [ms] -->
     <g style="fill: #262626" transform="translate(20.303437 253.340156) rotate(-90) scale(0.18 -0.18)">
      <defs>
       <path id="ArialMT-52" d="M 503 0 
L 503 4581 
L 2534 4581 
Q 3147 4581 3465 4457 
Q 3784 4334 3975 4021 
Q 4166 3709 4166 3331 
Q 4166 2844 3850 2509 
Q 3534 2175 2875 2084 
Q 3116 1969 3241 1856 
Q 3506 1613 3744 1247 
L 4541 0 
L 3778 0 
L 3172 953 
Q 2906 1366 2734 1584 
Q 2563 1803 2427 1890 
Q 2291 1978 2150 2013 
Q 2047 2034 1813 2034 
L 1109 2034 
L 1109 0 
L 503 0 
z
M 1109 2559 
L 2413 2559 
Q 2828 2559 3062 2645 
Q 3297 2731 3419 2920 
Q 3541 3109 3541 3331 
Q 3541 3656 3305 3865 
Q 3069 4075 2559 4075 
L 1109 4075 
L 1109 2559 
z
" transform="scale(0.015625)"/>
       <path id="ArialMT-6e" d="M 422 0 
L 422 3319 
L 928 3319 
L 928 2847 
Q 1294 3394 1984 3394 
Q 2284 3394 2536 3286 
Q 2788 3178 2913 3003 
Q 3038 2828 3088 2588 
Q 3119 2431 3119 2041 
L 3119 0 
L 2556 0 
L 2556 2019 
Q 2556 2363 2490 2533 
Q 2425 2703 2258 2804 
Q 2091 2906 1866 2906 
Q 1506 2906 1245 2678 
Q 984 2450 984 1813 
L 984 0 
L 422 0 
z
" transform="scale(0.015625)"/>
       <path id="ArialMT-74" d="M 1650 503 
L 1731 6 
Q 1494 -44 1306 -44 
Q 1000 -44 831 53 
Q 663 150 594 308 
Q 525 466 525 972 
L 525 2881 
L 113 2881 
L 113 3319 
L 525 3319 
L 525 4141 
L 1084 4478 
L 1084 3319 
L 1650 3319 
L 1650 2881 
L 1084 2881 
L 1084 941 
Q 1084 700 1114 631 
Q 1144 563 1211 522 
Q 1278 481 1403 481 
Q 1497 481 1650 503 
z
" transform="scale(0.015625)"/>
       <path id="ArialMT-69" d="M 425 3934 
L 425 4581 
L 988 4581 
L 988 3934 
L 425 3934 
z
M 425 0 
L 425 3319 
L 988 3319 
L 988 0 
L 425 0 
z
" transform="scale(0.015625)"/>
       <path id="ArialMT-6d" d="M 422 0 
L 422 3319 
L 925 3319 
L 925 2853 
Q 1081 3097 1340 3245 
Q 1600 3394 1931 3394 
Q 2300 3394 2536 3241 
Q 2772 3088 2869 2813 
Q 3263 3394 3894 3394 
Q 4388 3394 4653 3120 
Q 4919 2847 4919 2278 
L 4919 0 
L 4359 0 
L 4359 2091 
Q 4359 2428 4304 2576 
Q 4250 2725 4106 2815 
Q 3963 2906 3769 2906 
Q 3419 2906 3187 2673 
Q 2956 2441 2956 1928 
L 2956 0 
L 2394 0 
L 2394 2156 
Q 2394 2531 2256 2718 
Q 2119 2906 1806 2906 
Q 1569 2906 1367 2781 
Q 1166 2656 1075 2415 
Q 984 2175 984 1722 
L 984 0 
L 422 0 
z
" transform="scale(0.015625)"/>
       <path id="ArialMT-6f" d="M 213 1659 
Q 213 2581 725 3025 
Q 1153 3394 1769 3394 
Q 2453 3394 2887 2945 
Q 3322 2497 3322 1706 
Q 3322 1066 3130 698 
Q 2938 331 2570 128 
Q 2203 -75 1769 -75 
Q 1072 -75 642 372 
Q 213 819 213 1659 
z
M 791 1659 
Q 791 1022 1069 705 
Q 1347 388 1769 388 
Q 2188 388 2466 706 
Q 2744 1025 2744 1678 
Q 2744 2294 2464 2611 
Q 2184 2928 1769 2928 
Q 1347 2928 1069 2612 
Q 791 2297 791 1659 
z
" transform="scale(0.015625)"/>
       <path id="ArialMT-66" d="M 556 0 
L 556 2881 
L 59 2881 
L 59 3319 
L 556 3319 
L 556 3672 
Q 556 4006 616 4169 
Q 697 4388 901 4523 
Q 1106 4659 1475 4659 
Q 1713 4659 2000 4603 
L 1916 4113 
Q 1741 4144 1584 4144 
Q 1328 4144 1222 4034 
Q 1116 3925 1116 3625 
L 1116 3319 
L 1763 3319 
L 1763 2881 
L 1116 2881 
L 1116 0 
L 556 0 
z
" transform="scale(0.015625)"/>
       <path id="ArialMT-6b" d="M 425 0 
L 425 4581 
L 988 4581 
L 988 1969 
L 2319 3319 
L 3047 3319 
L 1778 2088 
L 3175 0 
L 2481 0 
L 1384 1697 
L 988 1316 
L 988 0 
L 425 0 
z
" transform="scale(0.015625)"/>
       <path id="ArialMT-64" d="M 2575 0 
L 2575 419 
Q 2259 -75 1647 -75 
Q 1250 -75 917 144 
Q 584 363 401 755 
Q 219 1147 219 1656 
Q 219 2153 384 2558 
Q 550 2963 881 3178 
Q 1213 3394 1622 3394 
Q 1922 3394 2156 3267 
Q 2391 3141 2538 2938 
L 2538 4581 
L 3097 4581 
L 3097 0 
L 2575 0 
z
M 797 1656 
Q 797 1019 1065 703 
Q 1334 388 1700 388 
Q 2069 388 2326 689 
Q 2584 991 2584 1609 
Q 2584 2291 2321 2609 
Q 2059 2928 1675 2928 
Q 1300 2928 1048 2622 
Q 797 2316 797 1656 
z
" transform="scale(0.015625)"/>
      </defs>
      <use xlink:href="#ArialMT-52"/>
      <use xlink:href="#ArialMT-75" x="72.216797"/>
      <use xlink:href="#ArialMT-6e" x="127.832031"/>
      <use xlink:href="#ArialMT-74" x="183.447266"/>
      <use xlink:href="#ArialMT-69" x="211.230469"/>
      <use xlink:href="#ArialMT-6d" x="233.447266"/>
      <use xlink:href="#ArialMT-65" x="316.748047"/>
      <use xlink:href="#ArialMT-20" x="372.363281"/>
      <use xlink:href="#ArialMT-6f" x="400.146484"/>
      <use xlink:href="#ArialMT-66" x="455.761719"/>
      <use xlink:href="#ArialMT-20" x="483.544922"/>
      <use xlink:href="#ArialMT-6d" x="511.328125"/>
      <use xlink:href="#ArialMT-61" x="594.628906"/>
      <use xlink:href="#ArialMT-6b" x="650.244141"/>
      <use xlink:href="#ArialMT-65" x="700.244141"/>
      <use xlink:href="#ArialMT-6e" x="755.859375"/>
      <use xlink:href="#ArialMT-6f" x="811.474609"/>
      <use xlink:href="#ArialMT-64" x="867.089844"/>
      <use xlink:href="#ArialMT-65" x="922.705078"/>
      <use xlink:href="#ArialMT-20" x="978.320312"/>
      <use xlink:href="#ArialMT-5b" x="1006.103516"/>
      <use xlink:href="#ArialMT-6d" x="1033.886719"/>
      <use xlink:href="#ArialMT-73" x="1117.1875"/>
      <use xlink:href="#ArialMT-5d" x="1167.1875"/>
     </g>
    </g>
   </g>
   <g id="PolyCollection_1">
    <defs>
     <path id="mec3c698882" d="M 90.131974 -93.702874 
L 90.131974 -88.595553 
L 93.296778 -70.467992 
L 96.488176 -70.62377 
L 99.652979 -70.917076 
L 102.817782 -71.215684 
L 105.982585 -71.790274 
L 109.147388 -72.274623 
L 112.338786 -74.114929 
L 115.503589 -73.766604 
L 118.668392 -74.701716 
L 121.833196 -74.683774 
L 125.024594 -75.205642 
L 128.189397 -75.364293 
L 131.3542 -75.065906 
L 134.519003 -76.310277 
L 137.683806 -75.84714 
L 140.875204 -76.278414 
L 144.040007 -76.472993 
L 147.20481 -76.787688 
L 150.369613 -77.008606 
L 153.534417 -76.806823 
L 156.725815 -76.870593 
L 159.890618 -77.381634 
L 163.055421 -77.664289 
L 166.220224 -78.763752 
L 169.385027 -78.740949 
L 172.576425 -78.468591 
L 175.741228 -79.029128 
L 178.906031 -79.230601 
L 182.070835 -79.159628 
L 185.235638 -79.262376 
L 188.427036 -79.366714 
L 191.591839 -79.707791 
L 194.756642 -80.328209 
L 197.921445 -80.379428 
L 201.112843 -80.782728 
L 204.277646 -81.44367 
L 207.442449 -82.19861 
L 210.607253 -82.122334 
L 213.772056 -82.763566 
L 216.963454 -83.391629 
L 220.128257 -84.162522 
L 223.29306 -83.45014 
L 226.457863 -83.945051 
L 229.622666 -84.088102 
L 232.814064 -84.372612 
L 235.978867 -84.390289 
L 239.143671 -84.853294 
L 242.308474 -85.408439 
L 245.473277 -85.638505 
L 248.664675 -85.555467 
L 251.829478 -86.080208 
L 254.994281 -86.320748 
L 258.159084 -86.432024 
L 261.350482 -86.730942 
L 264.515285 -87.289579 
L 267.680088 -87.51412 
L 270.844892 -87.79514 
L 274.009695 -88.406763 
L 277.201093 -88.417149 
L 280.365896 -89.011272 
L 283.530699 -88.44742 
L 286.695502 -88.129235 
L 289.860305 -88.495192 
L 293.051703 -89.564605 
L 296.216506 -89.74849 
L 299.38131 -89.63686 
L 302.546113 -90.186835 
L 305.710916 -90.244904 
L 308.902314 -90.333598 
L 312.067117 -89.981605 
L 315.23192 -92.156006 
L 318.396723 -91.81294 
L 321.561526 -92.143367 
L 324.752924 -91.531743 
L 327.917728 -92.179074 
L 331.082531 -91.896154 
L 334.247334 -91.89801 
L 337.438732 -92.797768 
L 340.603535 -92.873735 
L 343.768338 -93.144016 
L 343.768338 -94.648724 
L 343.768338 -94.648724 
L 340.603535 -94.152576 
L 337.438732 -93.899088 
L 334.247334 -93.646396 
L 331.082531 -92.727149 
L 327.917728 -93.630442 
L 324.752924 -93.745298 
L 321.561526 -94.217494 
L 318.396723 -93.048825 
L 315.23192 -93.218569 
L 312.067117 -91.852448 
L 308.902314 -91.419008 
L 305.710916 -91.422588 
L 302.546113 -91.517999 
L 299.38131 -90.689038 
L 296.216506 -90.911856 
L 293.051703 -90.699511 
L 289.860305 -89.902501 
L 286.695502 -89.612466 
L 283.530699 -89.317437 
L 280.365896 -90.043828 
L 277.201093 -90.264702 
L 274.009695 -90.178261 
L 270.844892 -88.993727 
L 267.680088 -88.603066 
L 264.515285 -88.596261 
L 261.350482 -87.821832 
L 258.159084 -87.349857 
L 254.994281 -88.016279 
L 251.829478 -88.161142 
L 248.664675 -86.708183 
L 245.473277 -87.344907 
L 242.308474 -86.879517 
L 239.143671 -86.06673 
L 235.978867 -85.622728 
L 232.814064 -85.571421 
L 229.622666 -85.212667 
L 226.457863 -85.241038 
L 223.29306 -85.060998 
L 220.128257 -85.352359 
L 216.963454 -84.514382 
L 213.772056 -84.298767 
L 210.607253 -83.703097 
L 207.442449 -83.190421 
L 204.277646 -83.47175 
L 201.112843 -82.090869 
L 197.921445 -82.138552 
L 194.756642 -82.508222 
L 191.591839 -81.495287 
L 188.427036 -80.920609 
L 185.235638 -80.602556 
L 182.070835 -80.796914 
L 178.906031 -80.687317 
L 175.741228 -80.626022 
L 172.576425 -80.311106 
L 169.385027 -80.374434 
L 166.220224 -80.187058 
L 163.055421 -78.619111 
L 159.890618 -78.620878 
L 156.725815 -77.855465 
L 153.534417 -78.163 
L 150.369613 -78.286828 
L 147.20481 -78.179086 
L 144.040007 -77.655671 
L 140.875204 -77.912032 
L 137.683806 -77.328691 
L 134.519003 -78.348653 
L 131.3542 -76.729442 
L 128.189397 -76.319292 
L 125.024594 -75.957046 
L 121.833196 -75.672447 
L 118.668392 -75.559359 
L 115.503589 -75.060912 
L 112.338786 -74.839729 
L 109.147388 -73.972452 
L 105.982585 -73.388449 
L 102.817782 -72.361417 
L 99.652979 -72.518786 
L 96.488176 -72.957308 
L 93.296778 -72.823626 
L 90.131974 -93.702874 
z
" style="stroke: #e36414; stroke-opacity: 0.2"/>
    </defs>
    <g clip-path="url(#p60b3dba711)">
     <use xlink:href="#mec3c698882" x="0" y="337.081641" style="fill: #e36414; fill-opacity: 0.2; stroke: #e36414; stroke-opacity: 0.2"/>
    </g>
   </g>
   <g id="PolyCollection_2">
    <defs>
     <path id="me11f1e5960" d="M 90.131974 -87.530781 
L 90.131974 -79.071332 
L 93.296778 -68.468903 
L 96.488176 -68.20724 
L 99.652979 -68.118943 
L 102.817782 -68.295669 
L 105.982585 -68.311578 
L 109.147388 -68.338093 
L 112.338786 -68.47425 
L 115.503589 -68.673956 
L 118.668392 -68.548494 
L 121.833196 -68.721419 
L 125.024594 -68.691677 
L 128.189397 -68.944237 
L 131.3542 -69.006327 
L 134.519003 -69.206961 
L 137.683806 -69.223577 
L 140.875204 -69.418201 
L 144.040007 -69.545298 
L 147.20481 -69.674296 
L 150.369613 -69.711639 
L 153.534417 -69.861849 
L 156.725815 -70.270143 
L 159.890618 -70.331879 
L 163.055421 -70.301917 
L 166.220224 -70.420088 
L 169.385027 -70.566983 
L 172.576425 -71.279189 
L 175.741228 -71.17516 
L 178.906031 -71.275565 
L 182.070835 -71.479071 
L 185.235638 -71.733752 
L 188.427036 -71.849978 
L 191.591839 -72.285318 
L 194.756642 -72.926594 
L 197.921445 -72.6937 
L 201.112843 -73.018912 
L 204.277646 -73.588155 
L 207.442449 -73.888266 
L 210.607253 -74.314679 
L 213.772056 -75.074833 
L 216.963454 -75.315019 
L 220.128257 -75.872064 
L 223.29306 -76.736292 
L 226.457863 -77.517791 
L 229.622666 -78.150096 
L 232.814064 -79.011142 
L 235.978867 -80.225285 
L 239.143671 -82.355625 
L 242.308474 -83.216185 
L 245.473277 -84.607893 
L 248.664675 -85.116813 
L 251.829478 -87.445048 
L 254.994281 -88.591576 
L 258.159084 -89.854242 
L 261.350482 -90.733098 
L 264.515285 -91.37075 
L 267.680088 -92.705671 
L 270.844892 -93.501179 
L 274.009695 -94.395502 
L 277.201093 -95.533413 
L 280.365896 -96.588242 
L 283.530699 -97.398776 
L 286.695502 -98.740414 
L 289.860305 -99.419431 
L 293.051703 -100.739282 
L 296.216506 -102.203377 
L 299.38131 -103.820202 
L 302.546113 -105.644554 
L 305.710916 -107.579211 
L 308.902314 -109.056829 
L 312.067117 -110.730883 
L 315.23192 -113.581781 
L 318.396723 -116.590933 
L 321.561526 -120.073341 
L 324.752924 -123.900185 
L 327.917728 -128.670538 
L 331.082531 -134.936142 
L 334.247334 -143.116074 
L 337.438732 -156.772421 
L 340.603535 -186.346177 
L 340.603535 -317.41675 
L 340.603535 -317.41675 
L 337.438732 -188.14808 
L 334.247334 -203.336181 
L 331.082531 -168.559958 
L 327.917728 -138.185037 
L 324.752924 -130.159072 
L 321.561526 -126.592698 
L 318.396723 -120.33907 
L 315.23192 -117.632327 
L 312.067117 -117.276225 
L 308.902314 -113.305048 
L 305.710916 -111.383649 
L 302.546113 -110.779494 
L 299.38131 -108.661528 
L 296.216506 -105.1241 
L 293.051703 -103.699424 
L 289.860305 -103.353309 
L 286.695502 -102.456954 
L 283.530699 -101.441809 
L 280.365896 -100.93448 
L 277.201093 -99.674554 
L 274.009695 -98.589143 
L 270.844892 -96.600395 
L 267.680088 -95.11712 
L 264.515285 -94.779534 
L 261.350482 -93.847825 
L 258.159084 -93.391847 
L 254.994281 -95.473002 
L 251.829478 -92.416122 
L 248.664675 -89.407766 
L 245.473277 -88.806705 
L 242.308474 -86.34744 
L 239.143671 -89.838245 
L 235.978867 -83.057843 
L 232.814064 -82.37781 
L 229.622666 -81.516411 
L 226.457863 -80.906688 
L 223.29306 -79.713315 
L 220.128257 -78.126056 
L 216.963454 -77.490392 
L 213.772056 -76.860252 
L 210.607253 -76.174694 
L 207.442449 -75.930443 
L 204.277646 -75.342285 
L 201.112843 -74.90699 
L 197.921445 -74.826074 
L 194.756642 -78.944765 
L 191.591839 -74.441997 
L 188.427036 -73.712159 
L 185.235638 -73.365558 
L 182.070835 -73.29127 
L 178.906031 -75.400222 
L 175.741228 -73.249199 
L 172.576425 -74.56768 
L 169.385027 -72.466197 
L 166.220224 -72.46222 
L 163.055421 -72.207672 
L 159.890618 -72.195386 
L 156.725815 -75.363586 
L 153.534417 -71.578548 
L 150.369613 -74.283037 
L 147.20481 -71.108429 
L 144.040007 -71.11002 
L 140.875204 -71.13658 
L 137.683806 -70.906823 
L 134.519003 -71.059022 
L 131.3542 -70.949159 
L 128.189397 -71.076522 
L 125.024594 -70.369222 
L 121.833196 -70.896173 
L 118.668392 -70.176587 
L 115.503589 -70.176676 
L 112.338786 -70.190773 
L 109.147388 -69.899324 
L 105.982585 -69.644554 
L 102.817782 -69.437734 
L 99.652979 -68.69729 
L 96.488176 -69.748804 
L 93.296778 -68.824387 
L 90.131974 -87.530781 
z
" style="stroke: #669bbc; stroke-opacity: 0.2"/>
    </defs>
    <g clip-path="url(#p60b3dba711)">
     <use xlink:href="#me11f1e5960" x="0" y="337.081641" style="fill: #669bbc; fill-opacity: 0.2; stroke: #669bbc; stroke-opacity: 0.2"/>
    </g>
   </g>
   <g id="line2d_20">
    <path d="M 90.131974 245.857123 
L 93.296778 265.492707 
L 96.488176 265.365433 
L 99.652979 265.335382 
L 102.817782 265.289422 
L 105.982585 264.430321 
L 109.147388 263.90885 
L 112.338786 262.579542 
L 115.503589 262.591916 
L 118.668392 261.950241 
L 121.833196 261.870695 
L 125.024594 261.49064 
L 128.189397 261.289123 
L 131.3542 261.186596 
L 134.519003 259.915622 
L 137.683806 260.506033 
L 140.875204 259.949208 
L 144.040007 260.005774 
L 147.20481 259.63279 
L 150.369613 259.457788 
L 153.534417 259.562082 
L 156.725815 259.684053 
L 159.890618 259.015864 
L 163.055421 258.962833 
L 166.220224 257.562816 
L 169.385027 257.523927 
L 172.576425 257.707767 
L 175.741228 257.196903 
L 178.906031 257.112053 
L 182.070835 257.089073 
L 185.235638 257.124427 
L 188.427036 256.912304 
L 191.591839 256.463308 
L 194.756642 255.636026 
L 197.921445 255.805725 
L 201.112843 255.567086 
L 204.277646 254.677934 
L 207.442449 254.395102 
L 210.607253 254.156463 
L 213.772056 253.49888 
L 216.963454 253.081703 
L 220.128257 252.282704 
L 223.29306 252.777659 
L 226.457863 252.494827 
L 229.622666 252.441796 
L 232.814064 252.127146 
L 235.978867 252.036994 
L 239.143671 251.616282 
L 242.308474 250.914506 
L 245.473277 250.626371 
L 248.664675 250.891526 
L 251.829478 249.894544 
L 254.994281 250.041263 
L 258.159084 250.168537 
L 261.350482 249.804392 
L 264.515285 249.187465 
L 267.680088 249.044282 
L 270.844892 248.703116 
L 274.009695 247.824571 
L 277.201093 247.844015 
L 280.365896 247.54881 
L 283.530699 248.211696 
L 286.695502 248.213464 
L 289.860305 247.884672 
L 293.051703 246.967237 
L 296.216506 246.801074 
L 299.38131 246.898297 
L 302.546113 246.230107 
L 305.710916 246.267229 
L 308.902314 246.207127 
L 312.067117 246.147026 
L 315.23192 244.402308 
L 318.396723 244.672766 
L 321.561526 244.008112 
L 324.752924 244.517208 
L 327.917728 244.211397 
L 331.082531 244.766454 
L 334.247334 244.283872 
L 337.438732 243.773008 
L 340.603535 243.576793 
L 343.768338 243.182597 
" clip-path="url(#p60b3dba711)" style="fill: none; stroke: #e36414; stroke-linecap: round"/>
   </g>
   <g id="line2d_21">
    <path d="M 90.131974 253.444081 
L 93.296778 268.427085 
L 96.488176 268.29274 
L 99.652979 268.685169 
L 102.817782 268.359913 
L 105.982585 268.184911 
L 109.147388 268.059404 
L 112.338786 267.803088 
L 115.503589 267.75536 
L 118.668392 267.774805 
L 121.833196 267.30283 
L 125.024594 267.626318 
L 128.189397 267.120757 
L 131.3542 267.140201 
L 134.519003 267.044746 
L 137.683806 267.050049 
L 140.875204 266.908633 
L 144.040007 266.81848 
L 147.20481 266.776056 
L 150.369613 265.570486 
L 153.534417 266.387162 
L 156.725815 264.759113 
L 159.890618 265.902813 
L 163.055421 265.846247 
L 166.220224 265.694225 
L 169.385027 265.612911 
L 172.576425 264.297744 
L 175.741228 264.893458 
L 178.906031 264.214662 
L 182.070835 264.767951 
L 185.235638 264.545221 
L 188.427036 264.248248 
L 191.591839 263.792182 
L 194.756642 261.819432 
L 197.921445 263.392683 
L 201.112843 263.214145 
L 204.277646 262.666159 
L 207.442449 262.264892 
L 210.607253 261.849483 
L 213.772056 261.165384 
L 216.963454 260.764116 
L 220.128257 260.214362 
L 223.29306 259.044147 
L 226.457863 257.999437 
L 229.622666 257.426703 
L 232.814064 256.530481 
L 235.978867 255.496378 
L 239.143671 251.68699 
L 242.308474 252.27033 
L 245.473277 250.437227 
L 248.664675 249.760199 
L 251.829478 247.041481 
L 254.994281 245.425805 
L 258.159084 245.307369 
L 261.350482 244.768222 
L 264.515285 243.965687 
L 267.680088 243.175526 
L 270.844892 241.996472 
L 274.009695 240.446201 
L 277.201093 239.41033 
L 280.365896 238.386833 
L 283.530699 237.646168 
L 286.695502 236.520145 
L 289.860305 235.728216 
L 293.051703 234.814317 
L 296.216506 233.311774 
L 299.38131 230.981949 
L 302.546113 228.940258 
L 305.710916 227.568525 
L 308.902314 226.080123 
L 312.067117 223.269484 
L 315.23192 221.469968 
L 318.396723 218.427761 
L 321.561526 213.960789 
L 324.752924 209.942813 
L 327.917728 203.814205 
L 331.082531 190.148136 
L 334.247334 172.845912 
L 337.438732 166.498111 
L 340.603535 94.22403 
" clip-path="url(#p60b3dba711)" style="fill: none; stroke: #669bbc; stroke-linecap: round"/>
   </g>
   <g id="patch_3">
    <path d="M 77.450156 284.4 
L 77.450156 7.2 
" style="fill: none; stroke: #cccccc; stroke-width: 1.25; stroke-linejoin: miter; stroke-linecap: square"/>
   </g>
   <g id="patch_4">
    <path d="M 356.450156 284.4 
L 356.450156 7.2 
" style="fill: none; stroke: #cccccc; stroke-width: 1.25; stroke-linejoin: miter; stroke-linecap: square"/>
   </g>
   <g id="patch_5">
    <path d="M 77.450156 284.4 
L 356.450156 284.4 
" style="fill: none; stroke: #cccccc; stroke-width: 1.25; stroke-linejoin: miter; stroke-linecap: square"/>
   </g>
   <g id="patch_6">
    <path d="M 77.450156 7.2 
L 356.450156 7.2 
" style="fill: none; stroke: #cccccc; stroke-width: 1.25; stroke-linejoin: miter; stroke-linecap: square"/>
   </g>
   <g id="legend_1">
    <g id="patch_7">
     <path d="M 89.000156 67.667344 
L 206.926172 67.667344 
Q 210.226172 67.667344 210.226172 64.367344 
L 210.226172 18.75 
Q 210.226172 15.45 206.926172 15.45 
L 89.000156 15.45 
Q 85.700156 15.45 85.700156 18.75 
L 85.700156 64.367344 
Q 85.700156 67.667344 89.000156 67.667344 
z
" style="fill: #ffffff; opacity: 0.8; stroke: #cccccc; stroke-linejoin: miter"/>
    </g>
    <g id="line2d_22">
     <path d="M 92.300156 28.286484 
L 108.800156 28.286484 
L 125.300156 28.286484 
" style="fill: none; stroke: #e36414; stroke-linecap: round"/>
    </g>
    <g id="text_22">
     <!-- Chaining -->
     <g style="fill: #262626" transform="translate(138.500156 34.061484) scale(0.165 -0.165)">
      <defs>
       <path id="ArialMT-43" d="M 3763 1606 
L 4369 1453 
Q 4178 706 3683 314 
Q 3188 -78 2472 -78 
Q 1731 -78 1267 223 
Q 803 525 561 1097 
Q 319 1669 319 2325 
Q 319 3041 592 3573 
Q 866 4106 1370 4382 
Q 1875 4659 2481 4659 
Q 3169 4659 3637 4309 
Q 4106 3959 4291 3325 
L 3694 3184 
Q 3534 3684 3231 3912 
Q 2928 4141 2469 4141 
Q 1941 4141 1586 3887 
Q 1231 3634 1087 3207 
Q 944 2781 944 2328 
Q 944 1744 1114 1308 
Q 1284 872 1643 656 
Q 2003 441 2422 441 
Q 2931 441 3284 734 
Q 3638 1028 3763 1606 
z
" transform="scale(0.015625)"/>
       <path id="ArialMT-68" d="M 422 0 
L 422 4581 
L 984 4581 
L 984 2938 
Q 1378 3394 1978 3394 
Q 2347 3394 2619 3248 
Q 2891 3103 3008 2847 
Q 3125 2591 3125 2103 
L 3125 0 
L 2563 0 
L 2563 2103 
Q 2563 2525 2380 2717 
Q 2197 2909 1863 2909 
Q 1613 2909 1392 2779 
Q 1172 2650 1078 2428 
Q 984 2206 984 1816 
L 984 0 
L 422 0 
z
" transform="scale(0.015625)"/>
      </defs>
      <use xlink:href="#ArialMT-43"/>
      <use xlink:href="#ArialMT-68" x="72.216797"/>
      <use xlink:href="#ArialMT-61" x="127.832031"/>
      <use xlink:href="#ArialMT-69" x="183.447266"/>
      <use xlink:href="#ArialMT-6e" x="205.664062"/>
      <use xlink:href="#ArialMT-69" x="261.279297"/>
      <use xlink:href="#ArialMT-6e" x="283.496094"/>
      <use xlink:href="#ArialMT-67" x="339.111328"/>
     </g>
    </g>
    <g id="line2d_23">
     <path d="M 92.300156 51.819609 
L 108.800156 51.819609 
L 125.300156 51.819609 
" style="fill: none; stroke: #669bbc; stroke-linecap: round"/>
    </g>
    <g id="text_23">
     <!-- Probing -->
     <g style="fill: #262626" transform="translate(138.500156 57.594609) scale(0.165 -0.165)">
      <defs>
       <path id="ArialMT-50" d="M 494 0 
L 494 4581 
L 2222 4581 
Q 2678 4581 2919 4538 
Q 3256 4481 3484 4323 
Q 3713 4166 3852 3881 
Q 3991 3597 3991 3256 
Q 3991 2672 3619 2267 
Q 3247 1863 2275 1863 
L 1100 1863 
L 1100 0 
L 494 0 
z
M 1100 2403 
L 2284 2403 
Q 2872 2403 3119 2622 
Q 3366 2841 3366 3238 
Q 3366 3525 3220 3729 
Q 3075 3934 2838 4000 
Q 2684 4041 2272 4041 
L 1100 4041 
L 1100 2403 
z
" transform="scale(0.015625)"/>
       <path id="ArialMT-72" d="M 416 0 
L 416 3319 
L 922 3319 
L 922 2816 
Q 1116 3169 1280 3281 
Q 1444 3394 1641 3394 
Q 1925 3394 2219 3213 
L 2025 2691 
Q 1819 2813 1613 2813 
Q 1428 2813 1281 2702 
Q 1134 2591 1072 2394 
Q 978 2094 978 1738 
L 978 0 
L 416 0 
z
" transform="scale(0.015625)"/>
      </defs>
      <use xlink:href="#ArialMT-50"/>
      <use xlink:href="#ArialMT-72" x="66.699219"/>
      <use xlink:href="#ArialMT-6f" x="100"/>
      <use xlink:href="#ArialMT-62" x="155.615234"/>
      <use xlink:href="#ArialMT-69" x="211.230469"/>
      <use xlink:href="#ArialMT-6e" x="233.447266"/>
      <use xlink:href="#ArialMT-67" x="289.0625"/>
     </g>
    </g>
   </g>
  </g>
 </g>
 <defs>
  <clipPath id="p60b3dba711">
   <rect x="77.450156" y="7.2" width="279" height="277.2"/>
  </clipPath>
 </defs>
</svg>
