<?xml version="1.0" encoding="utf-8" standalone="no"?>
<!DOCTYPE svg PUBLIC "-//W3C//DTD SVG 1.1//EN"
  "http://www.w3.org/Graphics/SVG/1.1/DTD/svg11.dtd">
<svg xmlns:xlink="http://www.w3.org/1999/xlink" width="373.880333pt" height="342.986836pt" viewBox="0 0 373.880333 342.986836" xmlns="http://www.w3.org/2000/svg" version="1.1">
 <metadata>
  <rdf:RDF xmlns:dc="http://purl.org/dc/elements/1.1/" xmlns:cc="http://creativecommons.org/ns#" xmlns:rdf="http://www.w3.org/1999/02/22-rdf-syntax-ns#">
   <cc:Work>
    <dc:type rdf:resource="http://purl.org/dc/dcmitype/StillImage"/>
    <dc:date>2023-08-02T16:43:39.513789</dc:date>
    <dc:format>image/svg+xml</dc:format>
    <dc:creator>
     <cc:Agent>
      <dc:title>Matplotlib v3.7.1, https://matplotlib.org/</dc:title>
     </cc:Agent>
    </dc:creator>
   </cc:Work>
  </rdf:RDF>
 </metadata>
 <defs>
  <style type="text/css">*{stroke-linejoin: round; stroke-linecap: butt}</style>
 </defs>
 <g id="figure_1">
  <g id="patch_1">
   <path d="M 0 342.986836 
L 373.880333 342.986836 
L 373.880333 0 
L 0 0 
z
" style="fill: #ffffff"/>
  </g>
  <g id="axes_1">
   <g id="patch_2">
    <path d="M 77.450156 290.305195 
L 356.450156 290.305195 
L 356.450156 13.105195 
L 77.450156 13.105195 
z
" style="fill: #ffffff"/>
   </g>
   <g id="matplotlib.axis_1">
    <g id="xtick_1">
     <g id="line2d_1">
      <path d="M 86.967171 290.305195 
L 86.967171 13.105195 
" clip-path="url(#p1fbe86ad02)" style="fill: none; stroke: #cccccc; stroke-linecap: round"/>
     </g>
     <g id="text_1">
      <!-- 0 -->
      <g style="fill: #262626" transform="translate(82.379398 311.615586) scale(0.165 -0.165)">
       <defs>
        <path id="ArialMT-30" d="M 266 2259 
Q 266 3072 433 3567 
Q 600 4063 929 4331 
Q 1259 4600 1759 4600 
Q 2128 4600 2406 4451 
Q 2684 4303 2865 4023 
Q 3047 3744 3150 3342 
Q 3253 2941 3253 2259 
Q 3253 1453 3087 958 
Q 2922 463 2592 192 
Q 2263 -78 1759 -78 
Q 1097 -78 719 397 
Q 266 969 266 2259 
z
M 844 2259 
Q 844 1131 1108 757 
Q 1372 384 1759 384 
Q 2147 384 2411 759 
Q 2675 1134 2675 2259 
Q 2675 3391 2411 3762 
Q 2147 4134 1753 4134 
Q 1366 4134 1134 3806 
Q 844 3388 844 2259 
z
" transform="scale(0.015625)"/>
       </defs>
       <use xlink:href="#ArialMT-30"/>
      </g>
     </g>
    </g>
    <g id="xtick_2">
     <g id="line2d_2">
      <path d="M 113.562155 290.305195 
L 113.562155 13.105195 
" clip-path="url(#p1fbe86ad02)" style="fill: none; stroke: #cccccc; stroke-linecap: round"/>
     </g>
     <g id="text_2">
      <!-- 10 -->
      <g style="fill: #262626" transform="translate(104.386609 311.615586) scale(0.165 -0.165)">
       <defs>
        <path id="ArialMT-31" d="M 2384 0 
L 1822 0 
L 1822 3584 
Q 1619 3391 1289 3197 
Q 959 3003 697 2906 
L 697 3450 
Q 1169 3672 1522 3987 
Q 1875 4303 2022 4600 
L 2384 4600 
L 2384 0 
z
" transform="scale(0.015625)"/>
       </defs>
       <use xlink:href="#ArialMT-31"/>
       <use xlink:href="#ArialMT-30" x="55.615234"/>
      </g>
     </g>
    </g>
    <g id="xtick_3">
     <g id="line2d_3">
      <path d="M 140.15714 290.305195 
L 140.15714 13.105195 
" clip-path="url(#p1fbe86ad02)" style="fill: none; stroke: #cccccc; stroke-linecap: round"/>
     </g>
     <g id="text_3">
      <!-- 20 -->
      <g style="fill: #262626" transform="translate(130.981593 311.615586) scale(0.165 -0.165)">
       <defs>
        <path id="ArialMT-32" d="M 3222 541 
L 3222 0 
L 194 0 
Q 188 203 259 391 
Q 375 700 629 1000 
Q 884 1300 1366 1694 
Q 2113 2306 2375 2664 
Q 2638 3022 2638 3341 
Q 2638 3675 2398 3904 
Q 2159 4134 1775 4134 
Q 1369 4134 1125 3890 
Q 881 3647 878 3216 
L 300 3275 
Q 359 3922 746 4261 
Q 1134 4600 1788 4600 
Q 2447 4600 2831 4234 
Q 3216 3869 3216 3328 
Q 3216 3053 3103 2787 
Q 2991 2522 2730 2228 
Q 2469 1934 1863 1422 
Q 1356 997 1212 845 
Q 1069 694 975 541 
L 3222 541 
z
" transform="scale(0.015625)"/>
       </defs>
       <use xlink:href="#ArialMT-32"/>
       <use xlink:href="#ArialMT-30" x="55.615234"/>
      </g>
     </g>
    </g>
    <g id="xtick_4">
     <g id="line2d_4">
      <path d="M 166.752124 290.305195 
L 166.752124 13.105195 
" clip-path="url(#p1fbe86ad02)" style="fill: none; stroke: #cccccc; stroke-linecap: round"/>
     </g>
     <g id="text_4">
      <!-- 30 -->
      <g style="fill: #262626" transform="translate(157.576577 311.615586) scale(0.165 -0.165)">
       <defs>
        <path id="ArialMT-33" d="M 269 1209 
L 831 1284 
Q 928 806 1161 595 
Q 1394 384 1728 384 
Q 2125 384 2398 659 
Q 2672 934 2672 1341 
Q 2672 1728 2419 1979 
Q 2166 2231 1775 2231 
Q 1616 2231 1378 2169 
L 1441 2663 
Q 1497 2656 1531 2656 
Q 1891 2656 2178 2843 
Q 2466 3031 2466 3422 
Q 2466 3731 2256 3934 
Q 2047 4138 1716 4138 
Q 1388 4138 1169 3931 
Q 950 3725 888 3313 
L 325 3413 
Q 428 3978 793 4289 
Q 1159 4600 1703 4600 
Q 2078 4600 2393 4439 
Q 2709 4278 2876 4000 
Q 3044 3722 3044 3409 
Q 3044 3113 2884 2869 
Q 2725 2625 2413 2481 
Q 2819 2388 3044 2092 
Q 3269 1797 3269 1353 
Q 3269 753 2831 336 
Q 2394 -81 1725 -81 
Q 1122 -81 723 278 
Q 325 638 269 1209 
z
" transform="scale(0.015625)"/>
       </defs>
       <use xlink:href="#ArialMT-33"/>
       <use xlink:href="#ArialMT-30" x="55.615234"/>
      </g>
     </g>
    </g>
    <g id="xtick_5">
     <g id="line2d_5">
      <path d="M 193.347108 290.305195 
L 193.347108 13.105195 
" clip-path="url(#p1fbe86ad02)" style="fill: none; stroke: #cccccc; stroke-linecap: round"/>
     </g>
     <g id="text_5">
      <!-- 40 -->
      <g style="fill: #262626" transform="translate(184.171561 311.615586) scale(0.165 -0.165)">
       <defs>
        <path id="ArialMT-34" d="M 2069 0 
L 2069 1097 
L 81 1097 
L 81 1613 
L 2172 4581 
L 2631 4581 
L 2631 1613 
L 3250 1613 
L 3250 1097 
L 2631 1097 
L 2631 0 
L 2069 0 
z
M 2069 1613 
L 2069 3678 
L 634 1613 
L 2069 1613 
z
" transform="scale(0.015625)"/>
       </defs>
       <use xlink:href="#ArialMT-34"/>
       <use xlink:href="#ArialMT-30" x="55.615234"/>
      </g>
     </g>
    </g>
    <g id="xtick_6">
     <g id="line2d_6">
      <path d="M 219.942092 290.305195 
L 219.942092 13.105195 
" clip-path="url(#p1fbe86ad02)" style="fill: none; stroke: #cccccc; stroke-linecap: round"/>
     </g>
     <g id="text_6">
      <!-- 50 -->
      <g style="fill: #262626" transform="translate(210.766545 311.615586) scale(0.165 -0.165)">
       <defs>
        <path id="ArialMT-35" d="M 266 1200 
L 856 1250 
Q 922 819 1161 601 
Q 1400 384 1738 384 
Q 2144 384 2425 690 
Q 2706 997 2706 1503 
Q 2706 1984 2436 2262 
Q 2166 2541 1728 2541 
Q 1456 2541 1237 2417 
Q 1019 2294 894 2097 
L 366 2166 
L 809 4519 
L 3088 4519 
L 3088 3981 
L 1259 3981 
L 1013 2750 
Q 1425 3038 1878 3038 
Q 2478 3038 2890 2622 
Q 3303 2206 3303 1553 
Q 3303 931 2941 478 
Q 2500 -78 1738 -78 
Q 1113 -78 717 272 
Q 322 622 266 1200 
z
" transform="scale(0.015625)"/>
       </defs>
       <use xlink:href="#ArialMT-35"/>
       <use xlink:href="#ArialMT-30" x="55.615234"/>
      </g>
     </g>
    </g>
    <g id="xtick_7">
     <g id="line2d_7">
      <path d="M 246.537076 290.305195 
L 246.537076 13.105195 
" clip-path="url(#p1fbe86ad02)" style="fill: none; stroke: #cccccc; stroke-linecap: round"/>
     </g>
     <g id="text_7">
      <!-- 60 -->
      <g style="fill: #262626" transform="translate(237.361529 311.615586) scale(0.165 -0.165)">
       <defs>
        <path id="ArialMT-36" d="M 3184 3459 
L 2625 3416 
Q 2550 3747 2413 3897 
Q 2184 4138 1850 4138 
Q 1581 4138 1378 3988 
Q 1113 3794 959 3422 
Q 806 3050 800 2363 
Q 1003 2672 1297 2822 
Q 1591 2972 1913 2972 
Q 2475 2972 2870 2558 
Q 3266 2144 3266 1488 
Q 3266 1056 3080 686 
Q 2894 316 2569 119 
Q 2244 -78 1831 -78 
Q 1128 -78 684 439 
Q 241 956 241 2144 
Q 241 3472 731 4075 
Q 1159 4600 1884 4600 
Q 2425 4600 2770 4297 
Q 3116 3994 3184 3459 
z
M 888 1484 
Q 888 1194 1011 928 
Q 1134 663 1356 523 
Q 1578 384 1822 384 
Q 2178 384 2434 671 
Q 2691 959 2691 1453 
Q 2691 1928 2437 2201 
Q 2184 2475 1800 2475 
Q 1419 2475 1153 2201 
Q 888 1928 888 1484 
z
" transform="scale(0.015625)"/>
       </defs>
       <use xlink:href="#ArialMT-36"/>
       <use xlink:href="#ArialMT-30" x="55.615234"/>
      </g>
     </g>
    </g>
    <g id="xtick_8">
     <g id="line2d_8">
      <path d="M 273.13206 290.305195 
L 273.13206 13.105195 
" clip-path="url(#p1fbe86ad02)" style="fill: none; stroke: #cccccc; stroke-linecap: round"/>
     </g>
     <g id="text_8">
      <!-- 70 -->
      <g style="fill: #262626" transform="translate(263.956513 311.615586) scale(0.165 -0.165)">
       <defs>
        <path id="ArialMT-37" d="M 303 3981 
L 303 4522 
L 3269 4522 
L 3269 4084 
Q 2831 3619 2401 2847 
Q 1972 2075 1738 1259 
Q 1569 684 1522 0 
L 944 0 
Q 953 541 1156 1306 
Q 1359 2072 1739 2783 
Q 2119 3494 2547 3981 
L 303 3981 
z
" transform="scale(0.015625)"/>
       </defs>
       <use xlink:href="#ArialMT-37"/>
       <use xlink:href="#ArialMT-30" x="55.615234"/>
      </g>
     </g>
    </g>
    <g id="xtick_9">
     <g id="line2d_9">
      <path d="M 299.727044 290.305195 
L 299.727044 13.105195 
" clip-path="url(#p1fbe86ad02)" style="fill: none; stroke: #cccccc; stroke-linecap: round"/>
     </g>
     <g id="text_9">
      <!-- 80 -->
      <g style="fill: #262626" transform="translate(290.551497 311.615586) scale(0.165 -0.165)">
       <defs>
        <path id="ArialMT-38" d="M 1131 2484 
Q 781 2613 612 2850 
Q 444 3088 444 3419 
Q 444 3919 803 4259 
Q 1163 4600 1759 4600 
Q 2359 4600 2725 4251 
Q 3091 3903 3091 3403 
Q 3091 3084 2923 2848 
Q 2756 2613 2416 2484 
Q 2838 2347 3058 2040 
Q 3278 1734 3278 1309 
Q 3278 722 2862 322 
Q 2447 -78 1769 -78 
Q 1091 -78 675 323 
Q 259 725 259 1325 
Q 259 1772 486 2073 
Q 713 2375 1131 2484 
z
M 1019 3438 
Q 1019 3113 1228 2906 
Q 1438 2700 1772 2700 
Q 2097 2700 2305 2904 
Q 2513 3109 2513 3406 
Q 2513 3716 2298 3927 
Q 2084 4138 1766 4138 
Q 1444 4138 1231 3931 
Q 1019 3725 1019 3438 
z
M 838 1322 
Q 838 1081 952 856 
Q 1066 631 1291 507 
Q 1516 384 1775 384 
Q 2178 384 2440 643 
Q 2703 903 2703 1303 
Q 2703 1709 2433 1975 
Q 2163 2241 1756 2241 
Q 1359 2241 1098 1978 
Q 838 1716 838 1322 
z
" transform="scale(0.015625)"/>
       </defs>
       <use xlink:href="#ArialMT-38"/>
       <use xlink:href="#ArialMT-30" x="55.615234"/>
      </g>
     </g>
    </g>
    <g id="xtick_10">
     <g id="line2d_10">
      <path d="M 326.322028 290.305195 
L 326.322028 13.105195 
" clip-path="url(#p1fbe86ad02)" style="fill: none; stroke: #cccccc; stroke-linecap: round"/>
     </g>
     <g id="text_10">
      <!-- 90 -->
      <g style="fill: #262626" transform="translate(317.146482 311.615586) scale(0.165 -0.165)">
       <defs>
        <path id="ArialMT-39" d="M 350 1059 
L 891 1109 
Q 959 728 1153 556 
Q 1347 384 1650 384 
Q 1909 384 2104 503 
Q 2300 622 2425 820 
Q 2550 1019 2634 1356 
Q 2719 1694 2719 2044 
Q 2719 2081 2716 2156 
Q 2547 1888 2255 1720 
Q 1963 1553 1622 1553 
Q 1053 1553 659 1965 
Q 266 2378 266 3053 
Q 266 3750 677 4175 
Q 1088 4600 1706 4600 
Q 2153 4600 2523 4359 
Q 2894 4119 3086 3673 
Q 3278 3228 3278 2384 
Q 3278 1506 3087 986 
Q 2897 466 2520 194 
Q 2144 -78 1638 -78 
Q 1100 -78 759 220 
Q 419 519 350 1059 
z
M 2653 3081 
Q 2653 3566 2395 3850 
Q 2138 4134 1775 4134 
Q 1400 4134 1122 3828 
Q 844 3522 844 3034 
Q 844 2597 1108 2323 
Q 1372 2050 1759 2050 
Q 2150 2050 2401 2323 
Q 2653 2597 2653 3081 
z
" transform="scale(0.015625)"/>
       </defs>
       <use xlink:href="#ArialMT-39"/>
       <use xlink:href="#ArialMT-30" x="55.615234"/>
      </g>
     </g>
    </g>
    <g id="xtick_11">
     <g id="line2d_11">
      <path d="M 352.917013 290.305195 
L 352.917013 13.105195 
" clip-path="url(#p1fbe86ad02)" style="fill: none; stroke: #cccccc; stroke-linecap: round"/>
     </g>
     <g id="text_11">
      <!-- 100 -->
      <g style="fill: #262626" transform="translate(339.153692 311.615586) scale(0.165 -0.165)">
       <use xlink:href="#ArialMT-31"/>
       <use xlink:href="#ArialMT-30" x="55.615234"/>
       <use xlink:href="#ArialMT-30" x="111.230469"/>
      </g>
     </g>
    </g>
    <g id="text_12">
     <!-- Table usage [%] -->
     <g style="fill: #262626" transform="translate(152.916563 331.998398) scale(0.18 -0.18)">
      <defs>
       <path id="ArialMT-54" d="M 1659 0 
L 1659 4041 
L 150 4041 
L 150 4581 
L 3781 4581 
L 3781 4041 
L 2266 4041 
L 2266 0 
L 1659 0 
z
" transform="scale(0.015625)"/>
       <path id="ArialMT-61" d="M 2588 409 
Q 2275 144 1986 34 
Q 1697 -75 1366 -75 
Q 819 -75 525 192 
Q 231 459 231 875 
Q 231 1119 342 1320 
Q 453 1522 633 1644 
Q 813 1766 1038 1828 
Q 1203 1872 1538 1913 
Q 2219 1994 2541 2106 
Q 2544 2222 2544 2253 
Q 2544 2597 2384 2738 
Q 2169 2928 1744 2928 
Q 1347 2928 1158 2789 
Q 969 2650 878 2297 
L 328 2372 
Q 403 2725 575 2942 
Q 747 3159 1072 3276 
Q 1397 3394 1825 3394 
Q 2250 3394 2515 3294 
Q 2781 3194 2906 3042 
Q 3031 2891 3081 2659 
Q 3109 2516 3109 2141 
L 3109 1391 
Q 3109 606 3145 398 
Q 3181 191 3288 0 
L 2700 0 
Q 2613 175 2588 409 
z
M 2541 1666 
Q 2234 1541 1622 1453 
Q 1275 1403 1131 1340 
Q 988 1278 909 1158 
Q 831 1038 831 891 
Q 831 666 1001 516 
Q 1172 366 1500 366 
Q 1825 366 2078 508 
Q 2331 650 2450 897 
Q 2541 1088 2541 1459 
L 2541 1666 
z
" transform="scale(0.015625)"/>
       <path id="ArialMT-62" d="M 941 0 
L 419 0 
L 419 4581 
L 981 4581 
L 981 2947 
Q 1338 3394 1891 3394 
Q 2197 3394 2470 3270 
Q 2744 3147 2920 2923 
Q 3097 2700 3197 2384 
Q 3297 2069 3297 1709 
Q 3297 856 2875 390 
Q 2453 -75 1863 -75 
Q 1275 -75 941 416 
L 941 0 
z
M 934 1684 
Q 934 1088 1097 822 
Q 1363 388 1816 388 
Q 2184 388 2453 708 
Q 2722 1028 2722 1663 
Q 2722 2313 2464 2622 
Q 2206 2931 1841 2931 
Q 1472 2931 1203 2611 
Q 934 2291 934 1684 
z
" transform="scale(0.015625)"/>
       <path id="ArialMT-6c" d="M 409 0 
L 409 4581 
L 972 4581 
L 972 0 
L 409 0 
z
" transform="scale(0.015625)"/>
       <path id="ArialMT-65" d="M 2694 1069 
L 3275 997 
Q 3138 488 2766 206 
Q 2394 -75 1816 -75 
Q 1088 -75 661 373 
Q 234 822 234 1631 
Q 234 2469 665 2931 
Q 1097 3394 1784 3394 
Q 2450 3394 2872 2941 
Q 3294 2488 3294 1666 
Q 3294 1616 3291 1516 
L 816 1516 
Q 847 969 1125 678 
Q 1403 388 1819 388 
Q 2128 388 2347 550 
Q 2566 713 2694 1069 
z
M 847 1978 
L 2700 1978 
Q 2663 2397 2488 2606 
Q 2219 2931 1791 2931 
Q 1403 2931 1139 2672 
Q 875 2413 847 1978 
z
" transform="scale(0.015625)"/>
       <path id="ArialMT-20" transform="scale(0.015625)"/>
       <path id="ArialMT-75" d="M 2597 0 
L 2597 488 
Q 2209 -75 1544 -75 
Q 1250 -75 995 37 
Q 741 150 617 320 
Q 494 491 444 738 
Q 409 903 409 1263 
L 409 3319 
L 972 3319 
L 972 1478 
Q 972 1038 1006 884 
Q 1059 663 1231 536 
Q 1403 409 1656 409 
Q 1909 409 2131 539 
Q 2353 669 2445 892 
Q 2538 1116 2538 1541 
L 2538 3319 
L 3100 3319 
L 3100 0 
L 2597 0 
z
" transform="scale(0.015625)"/>
       <path id="ArialMT-73" d="M 197 991 
L 753 1078 
Q 800 744 1014 566 
Q 1228 388 1613 388 
Q 2000 388 2187 545 
Q 2375 703 2375 916 
Q 2375 1106 2209 1216 
Q 2094 1291 1634 1406 
Q 1016 1563 777 1677 
Q 538 1791 414 1992 
Q 291 2194 291 2438 
Q 291 2659 392 2848 
Q 494 3038 669 3163 
Q 800 3259 1026 3326 
Q 1253 3394 1513 3394 
Q 1903 3394 2198 3281 
Q 2494 3169 2634 2976 
Q 2775 2784 2828 2463 
L 2278 2388 
Q 2241 2644 2061 2787 
Q 1881 2931 1553 2931 
Q 1166 2931 1000 2803 
Q 834 2675 834 2503 
Q 834 2394 903 2306 
Q 972 2216 1119 2156 
Q 1203 2125 1616 2013 
Q 2213 1853 2448 1751 
Q 2684 1650 2818 1456 
Q 2953 1263 2953 975 
Q 2953 694 2789 445 
Q 2625 197 2315 61 
Q 2006 -75 1616 -75 
Q 969 -75 630 194 
Q 291 463 197 991 
z
" transform="scale(0.015625)"/>
       <path id="ArialMT-67" d="M 319 -275 
L 866 -356 
Q 900 -609 1056 -725 
Q 1266 -881 1628 -881 
Q 2019 -881 2231 -725 
Q 2444 -569 2519 -288 
Q 2563 -116 2559 434 
Q 2191 0 1641 0 
Q 956 0 581 494 
Q 206 988 206 1678 
Q 206 2153 378 2554 
Q 550 2956 876 3175 
Q 1203 3394 1644 3394 
Q 2231 3394 2613 2919 
L 2613 3319 
L 3131 3319 
L 3131 450 
Q 3131 -325 2973 -648 
Q 2816 -972 2473 -1159 
Q 2131 -1347 1631 -1347 
Q 1038 -1347 672 -1080 
Q 306 -813 319 -275 
z
M 784 1719 
Q 784 1066 1043 766 
Q 1303 466 1694 466 
Q 2081 466 2343 764 
Q 2606 1063 2606 1700 
Q 2606 2309 2336 2618 
Q 2066 2928 1684 2928 
Q 1309 2928 1046 2623 
Q 784 2319 784 1719 
z
" transform="scale(0.015625)"/>
       <path id="ArialMT-5b" d="M 434 -1272 
L 434 4581 
L 1675 4581 
L 1675 4116 
L 997 4116 
L 997 -806 
L 1675 -806 
L 1675 -1272 
L 434 -1272 
z
" transform="scale(0.015625)"/>
       <path id="ArialMT-25" d="M 372 3481 
Q 372 3972 619 4315 
Q 866 4659 1334 4659 
Q 1766 4659 2048 4351 
Q 2331 4044 2331 3447 
Q 2331 2866 2045 2552 
Q 1759 2238 1341 2238 
Q 925 2238 648 2547 
Q 372 2856 372 3481 
z
M 1350 4272 
Q 1141 4272 1002 4090 
Q 863 3909 863 3425 
Q 863 2984 1003 2804 
Q 1144 2625 1350 2625 
Q 1563 2625 1702 2806 
Q 1841 2988 1841 3469 
Q 1841 3913 1700 4092 
Q 1559 4272 1350 4272 
z
M 1353 -169 
L 3859 4659 
L 4316 4659 
L 1819 -169 
L 1353 -169 
z
M 3334 1075 
Q 3334 1569 3581 1911 
Q 3828 2253 4300 2253 
Q 4731 2253 5014 1945 
Q 5297 1638 5297 1041 
Q 5297 459 5011 145 
Q 4725 -169 4303 -169 
Q 3888 -169 3611 142 
Q 3334 453 3334 1075 
z
M 4316 1866 
Q 4103 1866 3964 1684 
Q 3825 1503 3825 1019 
Q 3825 581 3965 400 
Q 4106 219 4313 219 
Q 4528 219 4667 400 
Q 4806 581 4806 1063 
Q 4806 1506 4665 1686 
Q 4525 1866 4316 1866 
z
" transform="scale(0.015625)"/>
       <path id="ArialMT-5d" d="M 1363 -1272 
L 122 -1272 
L 122 -806 
L 800 -806 
L 800 4116 
L 122 4116 
L 122 4581 
L 1363 4581 
L 1363 -1272 
z
" transform="scale(0.015625)"/>
      </defs>
      <use xlink:href="#ArialMT-54"/>
      <use xlink:href="#ArialMT-61" x="49.958984"/>
      <use xlink:href="#ArialMT-62" x="105.574219"/>
      <use xlink:href="#ArialMT-6c" x="161.189453"/>
      <use xlink:href="#ArialMT-65" x="183.40625"/>
      <use xlink:href="#ArialMT-20" x="239.021484"/>
      <use xlink:href="#ArialMT-75" x="266.804688"/>
      <use xlink:href="#ArialMT-73" x="322.419922"/>
      <use xlink:href="#ArialMT-61" x="372.419922"/>
      <use xlink:href="#ArialMT-67" x="428.035156"/>
      <use xlink:href="#ArialMT-65" x="483.650391"/>
      <use xlink:href="#ArialMT-20" x="539.265625"/>
      <use xlink:href="#ArialMT-5b" x="567.048828"/>
      <use xlink:href="#ArialMT-25" x="594.832031"/>
      <use xlink:href="#ArialMT-5d" x="683.748047"/>
     </g>
    </g>
   </g>
   <g id="matplotlib.axis_2">
    <g id="ytick_1">
     <g id="line2d_12">
      <path d="M 77.450156 290.305195 
L 356.450156 290.305195 
" clip-path="url(#p1fbe86ad02)" style="fill: none; stroke: #cccccc; stroke-linecap: round"/>
     </g>
     <g id="text_13">
      <!-- 0.0 -->
      <g style="fill: #262626" transform="translate(45.015156 296.210391) scale(0.165 -0.165)">
       <defs>
        <path id="ArialMT-2e" d="M 581 0 
L 581 641 
L 1222 641 
L 1222 0 
L 581 0 
z
" transform="scale(0.015625)"/>
       </defs>
       <use xlink:href="#ArialMT-30"/>
       <use xlink:href="#ArialMT-2e" x="55.615234"/>
       <use xlink:href="#ArialMT-30" x="83.398438"/>
      </g>
     </g>
    </g>
    <g id="ytick_2">
     <g id="line2d_13">
      <path d="M 77.450156 250.705195 
L 356.450156 250.705195 
" clip-path="url(#p1fbe86ad02)" style="fill: none; stroke: #cccccc; stroke-linecap: round"/>
     </g>
     <g id="text_14">
      <!-- 15.7 -->
      <g style="fill: #262626" transform="translate(35.839609 256.610391) scale(0.165 -0.165)">
       <use xlink:href="#ArialMT-31"/>
       <use xlink:href="#ArialMT-35" x="55.615234"/>
       <use xlink:href="#ArialMT-2e" x="111.230469"/>
       <use xlink:href="#ArialMT-37" x="139.013672"/>
      </g>
     </g>
    </g>
    <g id="ytick_3">
     <g id="line2d_14">
      <path d="M 77.450156 211.105195 
L 356.450156 211.105195 
" clip-path="url(#p1fbe86ad02)" style="fill: none; stroke: #cccccc; stroke-linecap: round"/>
     </g>
     <g id="text_15">
      <!-- 31.4 -->
      <g style="fill: #262626" transform="translate(35.839609 217.010391) scale(0.165 -0.165)">
       <use xlink:href="#ArialMT-33"/>
       <use xlink:href="#ArialMT-31" x="55.615234"/>
       <use xlink:href="#ArialMT-2e" x="111.230469"/>
       <use xlink:href="#ArialMT-34" x="139.013672"/>
      </g>
     </g>
    </g>
    <g id="ytick_4">
     <g id="line2d_15">
      <path d="M 77.450156 171.505195 
L 356.450156 171.505195 
" clip-path="url(#p1fbe86ad02)" style="fill: none; stroke: #cccccc; stroke-linecap: round"/>
     </g>
     <g id="text_16">
      <!-- 47.1 -->
      <g style="fill: #262626" transform="translate(35.839609 177.410391) scale(0.165 -0.165)">
       <use xlink:href="#ArialMT-34"/>
       <use xlink:href="#ArialMT-37" x="55.615234"/>
       <use xlink:href="#ArialMT-2e" x="111.230469"/>
       <use xlink:href="#ArialMT-31" x="139.013672"/>
      </g>
     </g>
    </g>
    <g id="ytick_5">
     <g id="line2d_16">
      <path d="M 77.450156 131.905195 
L 356.450156 131.905195 
" clip-path="url(#p1fbe86ad02)" style="fill: none; stroke: #cccccc; stroke-linecap: round"/>
     </g>
     <g id="text_17">
      <!-- 62.9 -->
      <g style="fill: #262626" transform="translate(35.839609 137.810391) scale(0.165 -0.165)">
       <use xlink:href="#ArialMT-36"/>
       <use xlink:href="#ArialMT-32" x="55.615234"/>
       <use xlink:href="#ArialMT-2e" x="111.230469"/>
       <use xlink:href="#ArialMT-39" x="139.013672"/>
      </g>
     </g>
    </g>
    <g id="ytick_6">
     <g id="line2d_17">
      <path d="M 77.450156 92.305195 
L 356.450156 92.305195 
" clip-path="url(#p1fbe86ad02)" style="fill: none; stroke: #cccccc; stroke-linecap: round"/>
     </g>
     <g id="text_18">
      <!-- 78.6 -->
      <g style="fill: #262626" transform="translate(35.839609 98.210391) scale(0.165 -0.165)">
       <use xlink:href="#ArialMT-37"/>
       <use xlink:href="#ArialMT-38" x="55.615234"/>
       <use xlink:href="#ArialMT-2e" x="111.230469"/>
       <use xlink:href="#ArialMT-36" x="139.013672"/>
      </g>
     </g>
    </g>
    <g id="ytick_7">
     <g id="line2d_18">
      <path d="M 77.450156 52.705195 
L 356.450156 52.705195 
" clip-path="url(#p1fbe86ad02)" style="fill: none; stroke: #cccccc; stroke-linecap: round"/>
     </g>
     <g id="text_19">
      <!-- 94.3 -->
      <g style="fill: #262626" transform="translate(35.839609 58.610391) scale(0.165 -0.165)">
       <use xlink:href="#ArialMT-39"/>
       <use xlink:href="#ArialMT-34" x="55.615234"/>
       <use xlink:href="#ArialMT-2e" x="111.230469"/>
       <use xlink:href="#ArialMT-33" x="139.013672"/>
      </g>
     </g>
    </g>
    <g id="ytick_8">
     <g id="line2d_19">
      <path d="M 77.450156 13.105195 
L 356.450156 13.105195 
" clip-path="url(#p1fbe86ad02)" style="fill: none; stroke: #cccccc; stroke-linecap: round"/>
     </g>
     <g id="text_20">
      <!-- 110.0 -->
      <g style="fill: #262626" transform="translate(27.880938 19.010391) scale(0.165 -0.165)">
       <use xlink:href="#ArialMT-31"/>
       <use xlink:href="#ArialMT-31" x="48.240234"/>
       <use xlink:href="#ArialMT-30" x="103.855469"/>
       <use xlink:href="#ArialMT-2e" x="159.470703"/>
       <use xlink:href="#ArialMT-30" x="187.253906"/>
      </g>
     </g>
    </g>
    <g id="text_21">
     <!-- Runtime of makenode [ms] -->
     <g style="fill: #262626" transform="translate(20.303437 259.245352) rotate(-90) scale(0.18 -0.18)">
      <defs>
       <path id="ArialMT-52" d="M 503 0 
L 503 4581 
L 2534 4581 
Q 3147 4581 3465 4457 
Q 3784 4334 3975 4021 
Q 4166 3709 4166 3331 
Q 4166 2844 3850 2509 
Q 3534 2175 2875 2084 
Q 3116 1969 3241 1856 
Q 3506 1613 3744 1247 
L 4541 0 
L 3778 0 
L 3172 953 
Q 2906 1366 2734 1584 
Q 2563 1803 2427 1890 
Q 2291 1978 2150 2013 
Q 2047 2034 1813 2034 
L 1109 2034 
L 1109 0 
L 503 0 
z
M 1109 2559 
L 2413 2559 
Q 2828 2559 3062 2645 
Q 3297 2731 3419 2920 
Q 3541 3109 3541 3331 
Q 3541 3656 3305 3865 
Q 3069 4075 2559 4075 
L 1109 4075 
L 1109 2559 
z
" transform="scale(0.015625)"/>
       <path id="ArialMT-6e" d="M 422 0 
L 422 3319 
L 928 3319 
L 928 2847 
Q 1294 3394 1984 3394 
Q 2284 3394 2536 3286 
Q 2788 3178 2913 3003 
Q 3038 2828 3088 2588 
Q 3119 2431 3119 2041 
L 3119 0 
L 2556 0 
L 2556 2019 
Q 2556 2363 2490 2533 
Q 2425 2703 2258 2804 
Q 2091 2906 1866 2906 
Q 1506 2906 1245 2678 
Q 984 2450 984 1813 
L 984 0 
L 422 0 
z
" transform="scale(0.015625)"/>
       <path id="ArialMT-74" d="M 1650 503 
L 1731 6 
Q 1494 -44 1306 -44 
Q 1000 -44 831 53 
Q 663 150 594 308 
Q 525 466 525 972 
L 525 2881 
L 113 2881 
L 113 3319 
L 525 3319 
L 525 4141 
L 1084 4478 
L 1084 3319 
L 1650 3319 
L 1650 2881 
L 1084 2881 
L 1084 941 
Q 1084 700 1114 631 
Q 1144 563 1211 522 
Q 1278 481 1403 481 
Q 1497 481 1650 503 
z
" transform="scale(0.015625)"/>
       <path id="ArialMT-69" d="M 425 3934 
L 425 4581 
L 988 4581 
L 988 3934 
L 425 3934 
z
M 425 0 
L 425 3319 
L 988 3319 
L 988 0 
L 425 0 
z
" transform="scale(0.015625)"/>
       <path id="ArialMT-6d" d="M 422 0 
L 422 3319 
L 925 3319 
L 925 2853 
Q 1081 3097 1340 3245 
Q 1600 3394 1931 3394 
Q 2300 3394 2536 3241 
Q 2772 3088 2869 2813 
Q 3263 3394 3894 3394 
Q 4388 3394 4653 3120 
Q 4919 2847 4919 2278 
L 4919 0 
L 4359 0 
L 4359 2091 
Q 4359 2428 4304 2576 
Q 4250 2725 4106 2815 
Q 3963 2906 3769 2906 
Q 3419 2906 3187 2673 
Q 2956 2441 2956 1928 
L 2956 0 
L 2394 0 
L 2394 2156 
Q 2394 2531 2256 2718 
Q 2119 2906 1806 2906 
Q 1569 2906 1367 2781 
Q 1166 2656 1075 2415 
Q 984 2175 984 1722 
L 984 0 
L 422 0 
z
" transform="scale(0.015625)"/>
       <path id="ArialMT-6f" d="M 213 1659 
Q 213 2581 725 3025 
Q 1153 3394 1769 3394 
Q 2453 3394 2887 2945 
Q 3322 2497 3322 1706 
Q 3322 1066 3130 698 
Q 2938 331 2570 128 
Q 2203 -75 1769 -75 
Q 1072 -75 642 372 
Q 213 819 213 1659 
z
M 791 1659 
Q 791 1022 1069 705 
Q 1347 388 1769 388 
Q 2188 388 2466 706 
Q 2744 1025 2744 1678 
Q 2744 2294 2464 2611 
Q 2184 2928 1769 2928 
Q 1347 2928 1069 2612 
Q 791 2297 791 1659 
z
" transform="scale(0.015625)"/>
       <path id="ArialMT-66" d="M 556 0 
L 556 2881 
L 59 2881 
L 59 3319 
L 556 3319 
L 556 3672 
Q 556 4006 616 4169 
Q 697 4388 901 4523 
Q 1106 4659 1475 4659 
Q 1713 4659 2000 4603 
L 1916 4113 
Q 1741 4144 1584 4144 
Q 1328 4144 1222 4034 
Q 1116 3925 1116 3625 
L 1116 3319 
L 1763 3319 
L 1763 2881 
L 1116 2881 
L 1116 0 
L 556 0 
z
" transform="scale(0.015625)"/>
       <path id="ArialMT-6b" d="M 425 0 
L 425 4581 
L 988 4581 
L 988 1969 
L 2319 3319 
L 3047 3319 
L 1778 2088 
L 3175 0 
L 2481 0 
L 1384 1697 
L 988 1316 
L 988 0 
L 425 0 
z
" transform="scale(0.015625)"/>
       <path id="ArialMT-64" d="M 2575 0 
L 2575 419 
Q 2259 -75 1647 -75 
Q 1250 -75 917 144 
Q 584 363 401 755 
Q 219 1147 219 1656 
Q 219 2153 384 2558 
Q 550 2963 881 3178 
Q 1213 3394 1622 3394 
Q 1922 3394 2156 3267 
Q 2391 3141 2538 2938 
L 2538 4581 
L 3097 4581 
L 3097 0 
L 2575 0 
z
M 797 1656 
Q 797 1019 1065 703 
Q 1334 388 1700 388 
Q 2069 388 2326 689 
Q 2584 991 2584 1609 
Q 2584 2291 2321 2609 
Q 2059 2928 1675 2928 
Q 1300 2928 1048 2622 
Q 797 2316 797 1656 
z
" transform="scale(0.015625)"/>
      </defs>
      <use xlink:href="#ArialMT-52"/>
      <use xlink:href="#ArialMT-75" x="72.216797"/>
      <use xlink:href="#ArialMT-6e" x="127.832031"/>
      <use xlink:href="#ArialMT-74" x="183.447266"/>
      <use xlink:href="#ArialMT-69" x="211.230469"/>
      <use xlink:href="#ArialMT-6d" x="233.447266"/>
      <use xlink:href="#ArialMT-65" x="316.748047"/>
      <use xlink:href="#ArialMT-20" x="372.363281"/>
      <use xlink:href="#ArialMT-6f" x="400.146484"/>
      <use xlink:href="#ArialMT-66" x="455.761719"/>
      <use xlink:href="#ArialMT-20" x="483.544922"/>
      <use xlink:href="#ArialMT-6d" x="511.328125"/>
      <use xlink:href="#ArialMT-61" x="594.628906"/>
      <use xlink:href="#ArialMT-6b" x="650.244141"/>
      <use xlink:href="#ArialMT-65" x="700.244141"/>
      <use xlink:href="#ArialMT-6e" x="755.859375"/>
      <use xlink:href="#ArialMT-6f" x="811.474609"/>
      <use xlink:href="#ArialMT-64" x="867.089844"/>
      <use xlink:href="#ArialMT-65" x="922.705078"/>
      <use xlink:href="#ArialMT-20" x="978.320312"/>
      <use xlink:href="#ArialMT-5b" x="1006.103516"/>
      <use xlink:href="#ArialMT-6d" x="1033.886719"/>
      <use xlink:href="#ArialMT-73" x="1117.1875"/>
      <use xlink:href="#ArialMT-5d" x="1167.1875"/>
     </g>
    </g>
   </g>
   <g id="PolyCollection_1">
    <defs>
     <path id="m24a3f96ee4" d="M 90.131974 -91.355451 
L 90.131974 -87.468771 
L 93.296778 -66.317641 
L 96.488176 -66.589241 
L 99.652979 -66.910891 
L 102.817782 -67.496371 
L 105.982585 -68.087171 
L 109.147388 -68.400561 
L 112.338786 -68.826371 
L 115.503589 -69.302231 
L 118.668392 -69.240351 
L 121.833196 -69.296631 
L 125.024594 -69.361171 
L 128.189397 -70.237641 
L 131.3542 -70.201241 
L 134.519003 -70.730231 
L 137.683806 -70.831101 
L 140.875204 -70.808701 
L 144.040007 -71.362961 
L 147.20481 -71.629241 
L 150.369613 -71.631691 
L 153.534417 -72.099641 
L 156.725815 -72.354301 
L 159.890618 -72.309571 
L 163.055421 -72.205971 
L 166.220224 -73.090841 
L 169.385027 -73.258841 
L 172.576425 -73.345501 
L 175.741228 -73.446441 
L 178.906031 -73.813101 
L 182.070835 -74.121031 
L 185.235638 -73.740441 
L 188.427036 -74.196841 
L 191.591839 -74.132441 
L 194.756642 -74.499101 
L 197.921445 -74.658631 
L 201.112843 -74.723101 
L 204.277646 -74.849171 
L 207.442449 -75.364301 
L 210.607253 -75.218561 
L 213.772056 -75.587951 
L 216.963454 -75.722631 
L 220.128257 -75.887831 
L 223.29306 -75.697571 
L 226.457863 -76.302371 
L 229.622666 -76.467151 
L 232.814064 -76.957571 
L 235.978867 -77.250871 
L 239.143671 -77.209151 
L 242.308474 -77.685641 
L 245.473277 -77.797501 
L 248.664675 -78.099481 
L 251.829478 -78.122021 
L 254.994281 -78.217291 
L 258.159084 -78.279241 
L 261.350482 -78.324041 
L 264.515285 -78.517241 
L 267.680088 -78.811101 
L 270.844892 -79.325881 
L 274.009695 -79.334701 
L 277.201093 -79.452371 
L 280.365896 -79.614771 
L 283.530699 -79.631291 
L 286.695502 -79.863971 
L 289.860305 -80.084961 
L 293.051703 -80.207811 
L 296.216506 -80.309101 
L 299.38131 -80.407101 
L 302.546113 -80.860701 
L 305.710916 -80.801761 
L 308.902314 -81.174441 
L 312.067117 -81.126771 
L 315.23192 -81.846231 
L 318.396723 -81.807101 
L 321.561526 -81.821171 
L 324.752924 -82.061201 
L 327.917728 -82.126371 
L 331.082531 -82.299901 
L 334.247334 -82.770441 
L 337.438732 -82.613641 
L 340.603535 -82.815101 
L 343.768338 -82.815031 
L 343.768338 -84.111851 
L 343.768338 -84.111851 
L 340.603535 -84.254511 
L 337.438732 -83.728111 
L 334.247334 -83.879381 
L 331.082531 -83.896461 
L 327.917728 -83.605051 
L 324.752924 -83.708511 
L 321.561526 -83.526721 
L 318.396723 -83.045121 
L 315.23192 -83.156841 
L 312.067117 -82.199241 
L 308.902314 -82.708911 
L 305.710916 -82.185241 
L 302.546113 -82.359121 
L 299.38131 -81.454511 
L 296.216506 -81.297921 
L 293.051703 -85.564911 
L 289.860305 -81.600181 
L 286.695502 -81.356651 
L 283.530699 -80.827591 
L 280.365896 -81.082111 
L 277.201093 -80.827311 
L 274.009695 -80.816391 
L 270.844892 -81.028911 
L 267.680088 -79.998721 
L 264.515285 -79.600911 
L 261.350482 -79.357241 
L 258.159084 -79.662441 
L 254.994281 -80.118911 
L 251.829478 -79.306841 
L 248.664675 -79.698981 
L 245.473277 -79.480721 
L 242.308474 -78.791641 
L 239.143671 -78.553781 
L 235.978867 -78.657241 
L 232.814064 -78.411051 
L 229.622666 -77.677311 
L 226.457863 -77.747241 
L 223.29306 -77.097711 
L 220.128257 -77.316321 
L 216.963454 -77.369311 
L 213.772056 -77.112061 
L 210.607253 -76.504111 
L 207.442449 -76.170841 
L 204.277646 -75.731241 
L 201.112843 -75.840441 
L 197.921445 -75.703311 
L 194.756642 -75.532651 
L 191.591839 -75.137711 
L 188.427036 -75.468531 
L 185.235638 -74.793381 
L 182.070835 -75.260911 
L 178.906031 -74.798911 
L 175.741228 -74.437641 
L 172.576425 -74.325641 
L 169.385027 -73.911241 
L 166.220224 -73.883381 
L 163.055421 -73.180511 
L 159.890618 -73.284111 
L 156.725815 -73.233711 
L 153.534417 -72.981641 
L 150.369613 -73.006841 
L 147.20481 -72.530911 
L 144.040007 -72.696391 
L 140.875204 -72.589851 
L 137.683806 -71.830841 
L 134.519003 -71.671241 
L 131.3542 -71.069241 
L 128.189397 -72.976181 
L 125.024594 -70.498041 
L 121.833196 -70.467381 
L 118.668392 -70.447641 
L 115.503589 -70.545921 
L 112.338786 -70.223641 
L 109.147388 -69.688911 
L 105.982585 -69.590911 
L 102.817782 -68.742511 
L 99.652979 -67.824251 
L 96.488176 -67.782041 
L 93.296778 -67.236111 
L 90.131974 -91.355451 
z
" style="stroke: #e36414; stroke-opacity: 0.2"/>
    </defs>
    <g clip-path="url(#p1fbe86ad02)">
     <use xlink:href="#m24a3f96ee4" x="0" y="342.986836" style="fill: #e36414; fill-opacity: 0.2; stroke: #e36414; stroke-opacity: 0.2"/>
    </g>
   </g>
   <g id="PolyCollection_2">
    <defs>
     <path id="m5338b3152e" d="M 90.131974 -109.591781 
L 90.131974 -93.675181 
L 93.296778 -66.255971 
L 96.488176 -65.900371 
L 99.652979 -66.104771 
L 102.817782 -65.903101 
L 105.982585 -66.365171 
L 109.147388 -66.440351 
L 112.338786 -66.440771 
L 115.503589 -66.429501 
L 118.668392 -66.617241 
L 121.833196 -66.479761 
L 125.024594 -66.485361 
L 128.189397 -66.577761 
L 131.3542 -66.664841 
L 134.519003 -66.544441 
L 137.683806 -66.782441 
L 140.875204 -66.818701 
L 144.040007 -66.782371 
L 147.20481 -66.849571 
L 150.369613 -67.246891 
L 153.534417 -67.350771 
L 156.725815 -67.423571 
L 159.890618 -67.541241 
L 163.055421 -67.770701 
L 166.220224 -68.190841 
L 169.385027 -67.692091 
L 172.576425 -68.156471 
L 175.741228 -68.081641 
L 178.906031 -68.157171 
L 182.070835 -68.386631 
L 185.235638 -68.213101 
L 188.427036 -68.602301 
L 191.591839 -68.759171 
L 194.756642 -68.792771 
L 197.921445 -69.251831 
L 201.112843 -69.167971 
L 204.277646 -69.730841 
L 207.442449 -69.985571 
L 210.607253 -70.257031 
L 213.772056 -71.094441 
L 216.963454 -71.424701 
L 220.128257 -71.802771 
L 223.29306 -72.894631 
L 226.457863 -73.457571 
L 229.622666 -74.115501 
L 232.814064 -75.847301 
L 235.978867 -76.226421 
L 239.143671 -76.792091 
L 242.308474 -78.012681 
L 245.473277 -78.382771 
L 248.664675 -79.678331 
L 251.829478 -81.112701 
L 254.994281 -81.924771 
L 258.159084 -82.789971 
L 261.350482 -83.660561 
L 264.515285 -84.820041 
L 267.680088 -84.884371 
L 270.844892 -85.629101 
L 274.009695 -86.724041 
L 277.201093 -86.900021 
L 280.365896 -87.868961 
L 283.530699 -88.877101 
L 286.695502 -90.321901 
L 289.860305 -91.175901 
L 293.051703 -92.133501 
L 296.216506 -92.878161 
L 299.38131 -93.466371 
L 302.546113 -94.781811 
L 305.710916 -95.980631 
L 308.902314 -97.915781 
L 312.067117 -99.872701 
L 315.23192 -102.017501 
L 318.396723 -104.159641 
L 321.561526 -106.486301 
L 324.752924 -110.050771 
L 327.917728 -112.943241 
L 331.082531 -119.313031 
L 334.247334 -126.713501 
L 337.438732 -135.712631 
L 340.603535 -148.405171 
L 340.603535 -152.502341 
L 340.603535 -152.502341 
L 337.438732 -142.216051 
L 334.247334 -135.363541 
L 331.082531 -122.578041 
L 327.917728 -117.832181 
L 324.752924 -112.834251 
L 321.561526 -108.525471 
L 318.396723 -106.447451 
L 315.23192 -104.616181 
L 312.067117 -101.757241 
L 308.902314 -103.137711 
L 305.710916 -98.453661 
L 302.546113 -103.977781 
L 299.38131 -96.185591 
L 296.216506 -95.787641 
L 293.051703 -107.814691 
L 289.860305 -93.077381 
L 286.695502 -92.326911 
L 283.530699 -90.336181 
L 280.365896 -89.213311 
L 277.201093 -88.737241 
L 274.009695 -88.490841 
L 270.844892 -87.578601 
L 267.680088 -86.931381 
L 264.515285 -86.432841 
L 261.350482 -85.326911 
L 258.159084 -84.229241 
L 254.994281 -83.467921 
L 251.829478 -82.932981 
L 248.664675 -81.395711 
L 245.473277 -80.804981 
L 242.308474 -81.012741 
L 239.143671 -81.489791 
L 235.978867 -78.228981 
L 232.814064 -77.937711 
L 229.622666 -76.165591 
L 226.457863 -75.303051 
L 223.29306 -74.584081 
L 220.128257 -73.149991 
L 216.963454 -79.550651 
L 213.772056 -72.671261 
L 210.607253 -71.627281 
L 207.442449 -71.419311 
L 204.277646 -70.655121 
L 201.112843 -69.803641 
L 197.921445 -73.121711 
L 194.756642 -69.336321 
L 191.591839 -69.467711 
L 188.427036 -69.372441 
L 185.235638 -68.904981 
L 182.070835 -73.749191 
L 178.906031 -68.997241 
L 175.741228 -68.994511 
L 172.576425 -76.924321 
L 169.385027 -68.804041 
L 166.220224 -69.966111 
L 163.055421 -71.290861 
L 159.890618 -78.268041 
L 156.725815 -73.664981 
L 153.534417 -70.964311 
L 150.369613 -88.074831 
L 147.20481 -78.993451 
L 144.040007 -79.136041 
L 140.875204 -68.572131 
L 137.683806 -77.425451 
L 134.519003 -70.948981 
L 131.3542 -78.839521 
L 128.189397 -79.931381 
L 125.024594 -67.429451 
L 121.833196 -67.678581 
L 118.668392 -67.653311 
L 115.503589 -67.474251 
L 112.338786 -72.265471 
L 109.147388 -67.412581 
L 105.982585 -69.269261 
L 102.817782 -66.863781 
L 99.652979 -66.908441 
L 96.488176 -66.718111 
L 93.296778 -70.794981 
L 90.131974 -109.591781 
z
" style="stroke: #669bbc; stroke-opacity: 0.2"/>
    </defs>
    <g clip-path="url(#p1fbe86ad02)">
     <use xlink:href="#m5338b3152e" x="0" y="342.986836" style="fill: #669bbc; fill-opacity: 0.2; stroke: #669bbc; stroke-opacity: 0.2"/>
    </g>
   </g>
   <g id="line2d_20">
    <path d="M 90.131974 253.588795 
L 93.296778 276.246395 
L 96.488176 275.890795 
L 99.652979 275.633195 
L 102.817782 274.958395 
L 105.982585 274.216395 
L 109.147388 273.922395 
L 112.338786 273.451995 
L 115.503589 273.082395 
L 118.668392 273.141195 
L 121.833196 273.090795 
L 125.024594 273.037595 
L 128.189397 271.662795 
L 131.3542 272.309595 
L 134.519003 271.735595 
L 137.683806 271.648795 
L 140.875204 271.351995 
L 144.040007 270.979595 
L 147.20481 270.861995 
L 150.369613 270.607195 
L 153.534417 270.374795 
L 156.725815 270.100395 
L 159.890618 270.145195 
L 163.055421 270.296395 
L 166.220224 269.445195 
L 169.385027 269.417195 
L 172.576425 269.125995 
L 175.741228 269.025195 
L 178.906031 268.663995 
L 182.070835 268.280395 
L 185.235638 268.717195 
L 188.427036 268.185195 
L 191.591839 268.392395 
L 194.756642 267.969595 
L 197.921445 267.801595 
L 201.112843 267.725995 
L 204.277646 267.725995 
L 207.442449 267.238795 
L 210.607253 267.132395 
L 213.772056 266.619995 
L 216.963454 266.401595 
L 220.128257 266.393195 
L 223.29306 266.625595 
L 226.457863 265.922795 
L 229.622666 265.897595 
L 232.814064 265.303995 
L 235.978867 265.051995 
L 239.143671 265.113595 
L 242.308474 264.729995 
L 245.473277 264.368795 
L 248.664675 264.074795 
L 251.829478 264.270795 
L 254.994281 263.859195 
L 258.159084 264.007595 
L 261.350482 264.119595 
L 264.515285 263.923595 
L 267.680088 263.570795 
L 270.844892 262.781195 
L 274.009695 262.929595 
L 277.201093 262.876395 
L 280.365896 262.632795 
L 283.530699 262.747595 
L 286.695502 262.352795 
L 289.860305 262.204395 
L 293.051703 260.703595 
L 296.216506 262.198795 
L 299.38131 262.053195 
L 302.546113 261.397995 
L 305.710916 261.507195 
L 308.902314 261.089995 
L 312.067117 261.319595 
L 315.23192 260.501995 
L 318.396723 260.591595 
L 321.561526 260.305995 
L 324.752924 260.104395 
L 327.917728 260.098795 
L 331.082531 259.899995 
L 334.247334 259.656395 
L 337.438732 259.815995 
L 340.603535 259.482795 
L 343.768338 259.547195 
" clip-path="url(#p1fbe86ad02)" style="fill: none; stroke: #e36414; stroke-linecap: round"/>
   </g>
   <g id="line2d_21">
    <path d="M 90.131974 242.478395 
L 93.296778 275.129195 
L 96.488176 276.680395 
L 99.652979 276.492795 
L 102.817782 276.596395 
L 105.982585 275.490395 
L 109.147388 276.039195 
L 112.338786 274.339595 
L 115.503589 276.002795 
L 118.668392 275.837595 
L 121.833196 275.890795 
L 125.024594 276.019595 
L 128.189397 271.721595 
L 131.3542 272.116395 
L 134.519003 274.798795 
L 137.683806 272.474795 
L 140.875204 275.420395 
L 144.040007 271.920395 
L 147.20481 271.909195 
L 150.369613 268.602395 
L 153.534417 274.280795 
L 156.725815 273.269995 
L 159.890618 271.690795 
L 163.055421 273.869195 
L 166.220224 274.017595 
L 169.385027 274.731595 
L 172.576425 271.517195 
L 175.741228 274.417995 
L 178.906031 274.384395 
L 182.070835 272.637195 
L 185.235638 274.429195 
L 188.427036 273.975595 
L 191.591839 273.880395 
L 194.756642 273.919595 
L 197.921445 272.329195 
L 201.112843 273.479995 
L 204.277646 272.757595 
L 207.442449 272.320795 
L 210.607253 272.077195 
L 213.772056 271.091595 
L 216.963454 268.638795 
L 220.128257 270.531595 
L 223.29306 269.235195 
L 226.457863 268.602395 
L 229.622666 267.832395 
L 232.814064 266.054395 
L 235.978867 265.746395 
L 239.143671 264.203595 
L 242.308474 263.514795 
L 245.473277 263.366395 
L 248.664675 262.461995 
L 251.829478 260.966795 
L 254.994281 260.289195 
L 258.159084 259.505195 
L 261.350482 258.452395 
L 264.515285 257.301595 
L 267.680088 257.091595 
L 270.844892 256.355195 
L 274.009695 255.341595 
L 277.201093 255.167995 
L 280.365896 254.437195 
L 283.530699 253.423595 
L 286.695502 251.743595 
L 289.860305 250.900795 
L 293.051703 244.967595 
L 296.216506 248.683195 
L 299.38131 248.324795 
L 302.546113 244.897595 
L 305.710916 245.841195 
L 308.902314 242.864795 
L 312.067117 242.097595 
L 315.23192 239.571995 
L 318.396723 237.564395 
L 321.561526 235.374795 
L 324.752924 231.533195 
L 327.917728 227.694395 
L 331.082531 221.993595 
L 334.247334 212.700395 
L 337.438732 204.468395 
L 340.603535 192.389195 
" clip-path="url(#p1fbe86ad02)" style="fill: none; stroke: #669bbc; stroke-linecap: round"/>
   </g>
   <g id="patch_3">
    <path d="M 77.450156 290.305195 
L 77.450156 13.105195 
" style="fill: none; stroke: #cccccc; stroke-width: 1.25; stroke-linejoin: miter; stroke-linecap: square"/>
   </g>
   <g id="patch_4">
    <path d="M 356.450156 290.305195 
L 356.450156 13.105195 
" style="fill: none; stroke: #cccccc; stroke-width: 1.25; stroke-linejoin: miter; stroke-linecap: square"/>
   </g>
   <g id="patch_5">
    <path d="M 77.450156 290.305195 
L 356.450156 290.305195 
" style="fill: none; stroke: #cccccc; stroke-width: 1.25; stroke-linejoin: miter; stroke-linecap: square"/>
   </g>
   <g id="patch_6">
    <path d="M 77.450156 13.105195 
L 356.450156 13.105195 
" style="fill: none; stroke: #cccccc; stroke-width: 1.25; stroke-linejoin: miter; stroke-linecap: square"/>
   </g>
   <g id="legend_1">
    <g id="patch_7">
     <path d="M 89.000156 73.572539 
L 206.926172 73.572539 
Q 210.226172 73.572539 210.226172 70.272539 
L 210.226172 24.655195 
Q 210.226172 21.355195 206.926172 21.355195 
L 89.000156 21.355195 
Q 85.700156 21.355195 85.700156 24.655195 
L 85.700156 70.272539 
Q 85.700156 73.572539 89.000156 73.572539 
z
" style="fill: #ffffff; opacity: 0.8; stroke: #cccccc; stroke-linejoin: miter"/>
    </g>
    <g id="line2d_22">
     <path d="M 92.300156 34.19168 
L 108.800156 34.19168 
L 125.300156 34.19168 
" style="fill: none; stroke: #e36414; stroke-linecap: round"/>
    </g>
    <g id="text_22">
     <!-- Chaining -->
     <g style="fill: #262626" transform="translate(138.500156 39.96668) scale(0.165 -0.165)">
      <defs>
       <path id="ArialMT-43" d="M 3763 1606 
L 4369 1453 
Q 4178 706 3683 314 
Q 3188 -78 2472 -78 
Q 1731 -78 1267 223 
Q 803 525 561 1097 
Q 319 1669 319 2325 
Q 319 3041 592 3573 
Q 866 4106 1370 4382 
Q 1875 4659 2481 4659 
Q 3169 4659 3637 4309 
Q 4106 3959 4291 3325 
L 3694 3184 
Q 3534 3684 3231 3912 
Q 2928 4141 2469 4141 
Q 1941 4141 1586 3887 
Q 1231 3634 1087 3207 
Q 944 2781 944 2328 
Q 944 1744 1114 1308 
Q 1284 872 1643 656 
Q 2003 441 2422 441 
Q 2931 441 3284 734 
Q 3638 1028 3763 1606 
z
" transform="scale(0.015625)"/>
       <path id="ArialMT-68" d="M 422 0 
L 422 4581 
L 984 4581 
L 984 2938 
Q 1378 3394 1978 3394 
Q 2347 3394 2619 3248 
Q 2891 3103 3008 2847 
Q 3125 2591 3125 2103 
L 3125 0 
L 2563 0 
L 2563 2103 
Q 2563 2525 2380 2717 
Q 2197 2909 1863 2909 
Q 1613 2909 1392 2779 
Q 1172 2650 1078 2428 
Q 984 2206 984 1816 
L 984 0 
L 422 0 
z
" transform="scale(0.015625)"/>
      </defs>
      <use xlink:href="#ArialMT-43"/>
      <use xlink:href="#ArialMT-68" x="72.216797"/>
      <use xlink:href="#ArialMT-61" x="127.832031"/>
      <use xlink:href="#ArialMT-69" x="183.447266"/>
      <use xlink:href="#ArialMT-6e" x="205.664062"/>
      <use xlink:href="#ArialMT-69" x="261.279297"/>
      <use xlink:href="#ArialMT-6e" x="283.496094"/>
      <use xlink:href="#ArialMT-67" x="339.111328"/>
     </g>
    </g>
    <g id="line2d_23">
     <path d="M 92.300156 57.724805 
L 108.800156 57.724805 
L 125.300156 57.724805 
" style="fill: none; stroke: #669bbc; stroke-linecap: round"/>
    </g>
    <g id="text_23">
     <!-- Probing -->
     <g style="fill: #262626" transform="translate(138.500156 63.499805) scale(0.165 -0.165)">
      <defs>
       <path id="ArialMT-50" d="M 494 0 
L 494 4581 
L 2222 4581 
Q 2678 4581 2919 4538 
Q 3256 4481 3484 4323 
Q 3713 4166 3852 3881 
Q 3991 3597 3991 3256 
Q 3991 2672 3619 2267 
Q 3247 1863 2275 1863 
L 1100 1863 
L 1100 0 
L 494 0 
z
M 1100 2403 
L 2284 2403 
Q 2872 2403 3119 2622 
Q 3366 2841 3366 3238 
Q 3366 3525 3220 3729 
Q 3075 3934 2838 4000 
Q 2684 4041 2272 4041 
L 1100 4041 
L 1100 2403 
z
" transform="scale(0.015625)"/>
       <path id="ArialMT-72" d="M 416 0 
L 416 3319 
L 922 3319 
L 922 2816 
Q 1116 3169 1280 3281 
Q 1444 3394 1641 3394 
Q 1925 3394 2219 3213 
L 2025 2691 
Q 1819 2813 1613 2813 
Q 1428 2813 1281 2702 
Q 1134 2591 1072 2394 
Q 978 2094 978 1738 
L 978 0 
L 416 0 
z
" transform="scale(0.015625)"/>
      </defs>
      <use xlink:href="#ArialMT-50"/>
      <use xlink:href="#ArialMT-72" x="66.699219"/>
      <use xlink:href="#ArialMT-6f" x="100"/>
      <use xlink:href="#ArialMT-62" x="155.615234"/>
      <use xlink:href="#ArialMT-69" x="211.230469"/>
      <use xlink:href="#ArialMT-6e" x="233.447266"/>
      <use xlink:href="#ArialMT-67" x="289.0625"/>
     </g>
    </g>
   </g>
  </g>
 </g>
 <defs>
  <clipPath id="p1fbe86ad02">
   <rect x="77.450156" y="13.105195" width="279" height="277.2"/>
  </clipPath>
 </defs>
</svg>
